<svg xmlns="http://www.w3.org/2000/svg" viewBox="0 0 500 500"><g id="freepik--Wall--inject-128"><g id="freepik--wall--inject-128"><path d="M482.89,237.53C470.8,219.73,451.82,203,426,188.71c-97.17-53.81-254.73-53.81-351.9,0-25.87,14.32-44.85,31-56.94,48.82v68.32C29.2,288,48.18,271.35,74.05,257c97.17-53.82,254.73-53.81,351.9,0,25.87,14.32,44.85,31,56.94,48.82Z" style="fill:#f5f5f5"></path><path d="M482.89,239.53a2,2,0,0,1-1.65-.87C468.92,220.53,450,204.31,425,190.46,328.5,137,171.5,137,75,190.46c-25,13.85-43.94,30.06-56.26,48.19a2,2,0,0,1-3.31-2.24C28.13,217.75,47.52,201.12,73.08,187c97.56-54,256.29-54,353.84,0,25.56,14.16,44.95,30.79,57.63,49.45a2,2,0,0,1-.53,2.78A2,2,0,0,1,482.89,239.53Z" style="fill:#e0e0e0"></path><path d="M457,278q2.6,2.14,5,4.34V214q-2.43-2.19-5-4.34Z" style="fill:#e0e0e0"></path><path d="M382.91,169.63c-1.66-.58-3.34-1.16-5-1.72v68.32q2.53.84,5,1.72Z" style="fill:#e0e0e0"></path><path d="M293.84,218.82c1.68.17,3.36.34,5,.53V151c-1.68-.19-3.36-.36-5-.53Z" style="fill:#e0e0e0"></path><path d="M35.34,284.73c1.63-1.53,3.29-3.06,5-4.56V211.85c-1.74,1.51-3.4,3-5,4.56Z" style="fill:#e0e0e0"></path><path d="M203.55,150.77c-1.68.17-3.35.36-5,.55v68.32l5-.56Z" style="fill:#e0e0e0"></path><path d="M114.48,238.87q2.51-.9,5-1.76V168.79c-1.69.58-3.37,1.16-5,1.77Z" style="fill:#e0e0e0"></path></g></g><g id="freepik--Floor--inject-128"><path id="freepik--floor--inject-128" d="M77.66,246.58c-95.18,54.95-95.17,144,0,199s249.49,54.95,344.67,0,95.17-144,0-199S172.84,191.63,77.66,246.58Z" style="fill:#fafafa"></path></g><g id="freepik--Shadows--inject-128"><polygon id="freepik--Shadow--inject-128" points="232.87 407.18 161.84 366.17 290.29 292.15 361.31 333.15 232.87 407.18" style="fill:#e0e0e0"></polygon><polygon id="freepik--shadow--inject-128" points="124.19 450 67.56 417.29 164.12 361.63 220.74 394.34 124.19 450" style="fill:#e0e0e0"></polygon><ellipse id="freepik--shadow--inject-128" cx="413.88" cy="365.18" rx="57.49" ry="33.19" style="fill:#e0e0e0"></ellipse><polygon id="freepik--shadow--inject-128" points="164.78 374.14 101.59 410.62 28.62 368.49 91.81 332.01 164.78 374.14" style="fill:#e0e0e0"></polygon><polygon id="freepik--shadow--inject-128" points="298.83 298.14 196.19 357.56 114.98 310.67 217.62 251.26 298.83 298.14" style="fill:#e0e0e0"></polygon><ellipse id="freepik--shadow--inject-128" cx="288.25" cy="270.83" rx="41.22" ry="23.8" style="fill:#e0e0e0"></ellipse></g><g id="freepik--Clock--inject-128"><g id="freepik--clock--inject-128"><path d="M93.83,54.85h0l0,0h0l-3.45-2h0l0,0h0c-3.73-1.89-8.7-1.34-14.06,2.11-10.77,6.94-19,22.93-18.38,35.72.31,6.38,2.76,10.76,6.48,12.69h0l3.46,2h0l0,0h0c3.73,1.9,8.71,1.34,14.07-2.11,10.77-6.93,19-22.93,18.38-35.72C100,61.15,97.55,56.78,93.83,54.85Z" style="fill:#f5f5f5"></path><path d="M67.54,105.2l-3.18-1.87h0l0,0c-3.71-1.93-6.16-6.31-6.47-12.67a39.91,39.91,0,0,1,3.89-17.93l3.46,2a39.7,39.7,0,0,0-3.89,17.93C61.61,98.88,64,103.2,67.54,105.2Z" style="fill:#e0e0e0"></path><path d="M81.93,103.25c10.77-6.93,19-22.93,18.38-35.72S90.45,50,79.68,56.92s-19,22.93-18.37,35.72S71.17,110.18,81.93,103.25Z" style="fill:#f0f0f0"></path><path d="M72.91,102.36c-6.35.31-7.38-6.83-7.53-9.91-.55-11.29,7-26,16.51-32.1a14.31,14.31,0,0,1,6.82-2.53c6.35-.31,7.38,6.83,7.53,9.91.55,11.28-7,26-16.51,32.1a14.49,14.49,0,0,1-6.82,2.53Z" style="fill:#fff"></path><path d="M82.05,82.2a.83.83,0,0,1-.22,0,.7.7,0,0,1-.47-.66V65.19a.7.7,0,1,1,1.39,0V79.5l7.61-9.78a.69.69,0,0,1,1-.12.7.7,0,0,1,.12,1L82.6,81.94A.69.69,0,0,1,82.05,82.2Z" style="fill:#e0e0e0"></path><path d="M78.16,94.26h-.1a.3.3,0,0,1-.2-.37L81.69,81a.29.29,0,0,1,.36-.19.28.28,0,0,1,.2.36L78.42,94.05A.3.3,0,0,1,78.16,94.26Z" style="fill:#f5f5f5"></path><path d="M81.83,78.25c1.27-.82,2.36-.26,2.43,1.24A5.23,5.23,0,0,1,82.1,83.7c-1.27.81-2.35.25-2.43-1.25A5.23,5.23,0,0,1,81.83,78.25Z" style="fill:#f5f5f5"></path></g></g><g id="freepik--Flag--inject-128"><g id="freepik--flag--inject-128"><path d="M298.89,260c-6.05-3.49-15.87-3.49-21.93,0-3,1.75-4.53,4-4.53,6.34,0,.7,0,1.66,0,2.37,0,2.29,1.5,4.58,4.53,6.33,6.06,3.49,15.88,3.49,21.93,0,3-1.75,4.54-4,4.53-6.33v-2.37C303.43,264,301.92,261.75,298.89,260Z" style="fill:#37474f"></path><path d="M277,260c-6.06,3.5-6,9.17,0,12.67s15.88,3.49,21.93,0,6.06-9.17,0-12.67S283,256.51,277,260Z" style="fill:#455a64"></path><path d="M297.78,257.75c-5.44-3.15-14.26-3.15-19.7,0-2.73,1.57-4.08,3.62-4.07,5.68V265c0,2.06,1.35,4.12,4.07,5.69,5.44,3.14,14.26,3.14,19.7,0,2.72-1.57,4.07-3.63,4.06-5.69v-1.56C301.85,261.37,300.5,259.32,297.78,257.75Z" style="fill:#37474f"></path><path d="M278.08,257.75c-5.44,3.14-5.44,8.23,0,11.37s14.26,3.14,19.7,0,5.44-8.23,0-11.37S283.52,254.6,278.08,257.75Z" style="fill:#455a64"></path><path d="M289.37,54.9a1.45,1.45,0,0,0-1.44-1.44h0a1.44,1.44,0,0,0-1.44,1.44V263.8h0a.71.71,0,0,0,.42.58,2.21,2.21,0,0,0,2,0,.7.7,0,0,0,.43-.58h0Z" style="fill:#37474f"></path><path d="M287.93,53.46h0a1.44,1.44,0,0,0-1.44,1.44v1.71a4,4,0,0,0,1.44.27,3.89,3.89,0,0,0,1.44-.28V54.9A1.45,1.45,0,0,0,287.93,53.46Z" style="opacity:0.2"></path><path d="M290.66,53.29a2.73,2.73,0,1,1-2.73-2.73A2.74,2.74,0,0,1,290.66,53.29Z" style="fill:#455a64"></path><path d="M269.19,184.75c-1.14,11.31,17.35,18.91,31.68,16l-4.13-54.49-23.21,2.79Z" style="fill:#ebebeb"></path><path d="M269.94,182.76a14.15,14.15,0,0,0-.75,2.81L276.67,125c12.71,3.53,22.65,13.68,24.79,27.12C303.72,166.38,275.55,167.37,269.94,182.76Z" style="fill:#e0e0e0"></path><path d="M289.15,50.85a2.71,2.71,0,0,0-2.44,0,1.71,1.71,0,0,0,2.44,0Z" style="opacity:0.2"></path><path d="M290.15,48.28c0,1.23-1,2.7-2.22,2.7s-2.23-1.47-2.23-2.7,2.23-11.4,2.23-11.4S290.15,47.06,290.15,48.28Z" style="fill:#455a64"></path><path d="M286.49,57.91,271,130.85s11.33,3.41,18,7.09c11,6.05,12.42,14.2,12.42,14.2Z" style="fill:#ebebeb"></path></g></g><g id="freepik--character-3--inject-128"><g id="freepik--Character--inject-128"><g id="freepik--Chartacter--inject-128"><g id="freepik--Bottom--inject-128"><polygon points="402.72 355.71 397.73 354.21 399.17 350.93 402.32 353.46 402.72 355.71"></polygon><path d="M407.34,346.91s.35,3.06.45,4-4,4.21-5.07,4.77l-.4-2.25a17.55,17.55,0,0,0-2.26,3.8c-.75,1.43-1.66,4.1-3.84,6-3.22,2.83-8.39,4.47-13.73,4.95s-8.46-.6-10-1.63-2.13-2.32-1.82-3.65S407.34,346.91,407.34,346.91Z" style="fill:#263238"></path><path d="M392.49,337.24l-.16-1.78c-1,0-1,2.61-2.29,5a46.68,46.68,0,0,1-7,9.69c-5.17,5.07-9.85,8.33-12.16,10.61-3.09,3,2.84,7.28,11.54,6.32,4.32-.47,11.9-3,13.94-5.59s3.15-6.51,4.79-8.4,5.26-3.9,6.23-6.14c.53-1.22.33-2.9.09-6.22-.15-2.2,0-5.76-1.22-5.42l0,1.13c-.47,1-2.81,2.76-6.28,3.53C398.18,340.31,393,340.75,392.49,337.24Z" style="fill:#37474f"></path><path d="M397.11,340.17c-1.68,0-3.5-.47-4.27-1.88l0-.05a4,4,0,0,1-.94,3.49c-1.47,1.85-10.68,14.81-10.68,14.81s8.64-10.75,10.3-12.78c2.45-3,3.26-3.37,5.63-3.58Z" style="opacity:0.15"></path><path d="M395.1,343.58a.52.52,0,0,0,.61.42.51.51,0,0,0,.44-.59.53.53,0,0,0-1,.17Z" style="opacity:0.15"></path><path d="M392.67,346.47a.53.53,0,1,0,.44-.59A.51.51,0,0,0,392.67,346.47Z" style="opacity:0.15"></path><path d="M390.24,349.36a.53.53,0,0,0,1.05-.17.53.53,0,0,0-1.05.17Z" style="opacity:0.15"></path><path d="M387.8,352.25a.54.54,0,0,0,.62.42.52.52,0,1,0-.62-.42Z" style="opacity:0.15"></path><path d="M385.37,355.13a.53.53,0,0,0,.62.42.52.52,0,0,0,.44-.59.54.54,0,0,0-1.06.17Z" style="opacity:0.15"></path><path d="M395.65,343.7a.21.21,0,0,0,.14-.07.2.2,0,0,0,0-.29,8.87,8.87,0,0,0-6.15-2h0a.21.21,0,1,0,.05.41,8.64,8.64,0,0,1,5.82,1.86A.23.23,0,0,0,395.65,343.7Z" style="fill:#263238"></path><path d="M393.22,346.58a.21.21,0,0,0,.13-.07.2.2,0,0,0,0-.29,8.91,8.91,0,0,0-6.16-2h0a.21.21,0,0,0-.19.23.22.22,0,0,0,.24.18,8.61,8.61,0,0,1,5.82,1.86A.22.22,0,0,0,393.22,346.58Z" style="fill:#263238"></path><path d="M390.79,349.48a.21.21,0,0,0,.13-.07.2.2,0,0,0,0-.29,9,9,0,0,0-6.16-2h0a.22.22,0,0,0-.19.23.22.22,0,0,0,.24.19,8.61,8.61,0,0,1,5.82,1.86A.26.26,0,0,0,390.79,349.48Z" style="fill:#263238"></path><path d="M388.36,352.36a.17.17,0,0,0,.13-.07.2.2,0,0,0,0-.29,8.9,8.9,0,0,0-6.15-2h0a.22.22,0,0,0-.19.23.21.21,0,0,0,.24.18,8.62,8.62,0,0,1,5.82,1.87A.21.21,0,0,0,388.36,352.36Z" style="fill:#263238"></path><path d="M385.93,355.25a.21.21,0,0,0,.13-.07.2.2,0,0,0,0-.29,8.85,8.85,0,0,0-6.15-2h0a.21.21,0,0,0-.19.23.22.22,0,0,0,.24.18,8.69,8.69,0,0,1,5.82,1.86A.22.22,0,0,0,385.93,355.25Z" style="fill:#263238"></path><path d="M433.84,370.66c.35,4.08,1.07,6.77,2.64,9.14s4.73,2.93,7.14,2.67a10.08,10.08,0,0,0,8.63-6.73c1-2.69.82-5.91.07-9.68Z" style="fill:#263238"></path><path d="M446.13,340.79c1.18.07,1.67,5.54,2.48,11,.88,5.87,2.83,9.12,3.54,13.08,1,5.48.64,8-1.28,11.33s-10.53,6.87-14.14,2.16c-2.94-3.84-3.17-8.15-3-13.65a136,136,0,0,0-.09-14c-.33-4.12-.73-8.11.29-8.59.09.6.19,1.37.29,2s.25,2.69.91,2.7a8,8,0,0,0,0-1.55,1.74,1.74,0,0,1,.29-1.34,2.18,2.18,0,0,1,1.29-.59c1.16-.24,2.33-.46,3.51-.59a17.5,17.5,0,0,1,1.77-.1,20,20,0,0,1,3.1.07,1,1,0,0,1,.65.54,1.5,1.5,0,0,1,.08.63,4.37,4.37,0,0,0,.18,1.13c.05.16.17.36.33.32a.33.33,0,0,0,.19-.34c0-.67-.11-1.15-.16-1.92,0-.36-.1-.84-.11-1.2S446.16,341.14,446.13,340.79Z" style="fill:#37474f"></path><path d="M447.84,366.33a.4.4,0,0,1-.36.44.41.41,0,0,1-.46-.35.4.4,0,0,1,.36-.44A.4.4,0,0,1,447.84,366.33Z" style="opacity:0.15"></path><path d="M447.35,362.53a.39.39,0,0,1-.36.44.41.41,0,0,1-.46-.34.4.4,0,0,1,.36-.45A.42.42,0,0,1,447.35,362.53Z" style="opacity:0.15"></path><path d="M446.89,359a.39.39,0,0,1-.36.44.41.41,0,0,1-.46-.35.4.4,0,0,1,.36-.44A.42.42,0,0,1,446.89,359Z" style="opacity:0.15"></path><path d="M446.43,355.42a.39.39,0,0,1-.36.44.41.41,0,0,1-.46-.35.4.4,0,0,1,.36-.44A.41.41,0,0,1,446.43,355.42Z" style="opacity:0.15"></path><path d="M437.09,356.15a.39.39,0,0,1-.36.44.4.4,0,1,1-.1-.79A.42.42,0,0,1,437.09,356.15Z" style="opacity:0.15"></path><path d="M437.55,359.71a.4.4,0,0,1-.36.44.41.41,0,0,1-.46-.35.39.39,0,0,1,.36-.44A.41.41,0,0,1,437.55,359.71Z" style="opacity:0.15"></path><path d="M438,363.29a.39.39,0,0,1-.36.44.41.41,0,0,1-.46-.35.4.4,0,0,1,.36-.44A.41.41,0,0,1,438,363.29Z" style="opacity:0.15"></path><path d="M438.5,367.09a.4.4,0,0,1-.36.44.41.41,0,0,1-.46-.35.39.39,0,0,1,.36-.44A.41.41,0,0,1,438.5,367.09Z" style="opacity:0.15"></path><polygon points="442.03 368.81 438.19 342.34 439.72 342.28 442.03 368.81" style="opacity:0.15"></polygon><path d="M447.46,366.58h-.07c-2.74-.53-7.4-.18-9.2.72a.22.22,0,0,1-.29-.09.2.2,0,0,1,.09-.27c1.92-.95,6.61-1.31,9.48-.75a.2.2,0,0,1,.17.23A.21.21,0,0,1,447.46,366.58Z" style="fill:#263238"></path><path d="M447,362.78a.2.2,0,0,1-.11,0c-2.11-.91-7.1-.29-9.17.73a.21.21,0,0,1-.28-.09.2.2,0,0,1,.09-.27c2.15-1.06,7.3-1.7,9.53-.74a.2.2,0,0,1,.1.27A.2.2,0,0,1,447,362.78Z" style="fill:#263238"></path><path d="M446.5,359.2a.23.23,0,0,1-.11,0c-2.11-.91-7.1-.29-9.16.73a.21.21,0,0,1-.28-.09.19.19,0,0,1,.09-.27c2.15-1.07,7.3-1.7,9.52-.74a.2.2,0,0,1,.11.27A.21.21,0,0,1,446.5,359.2Z" style="fill:#263238"></path><path d="M446.05,355.67a.2.2,0,0,1-.11,0c-2.11-.91-7.1-.29-9.17.73a.21.21,0,0,1-.28-.09.2.2,0,0,1,.09-.27c2.15-1.07,7.3-1.7,9.53-.74a.2.2,0,0,1,.1.27A.2.2,0,0,1,446.05,355.67Z" style="fill:#263238"></path><path d="M442.94,205c2.85,33.47,3.41,82.82,3.41,82.82.25,2.54,2.57,7.63,2.95,20.23.46,15.37-1.08,37.11-1.08,37.11s-7.84,4.24-15.63,1.77c0,0-8.24-29.86-11.2-49.19-2.3-15.05-6.28-43.18-6.28-43.18l-2.18,28.42s.57,9.54.3,16.22c-.32,7.76-5.56,39.34-5.56,39.34s-9.09,4.51-17.47.27c0,0-2.41-45.93-2.67-55.28-.5-18.32.09-54.43.71-78.09Z" style="fill:#263238"></path><path d="M389.64,334.24s2.22,1.73,7.27,2.14,11.85-2.14,11.85-2.14l-.81,5.11a20.92,20.92,0,0,1-11,2c-6.2-.6-7.14-1.92-7.14-1.92Z" style="fill:#455a64"></path><path d="M448.7,340.91a24.61,24.61,0,0,1-8.75,2.41,21.39,21.39,0,0,1-8.74-1l.8,5.12s2.68,1.8,8.87,1.2,7.62-2.51,7.62-2.51Z" style="fill:#455a64"></path><path d="M428.45,246.59q.45,10.78,1.15,21.55c.23,3.59.47,7.18.74,10.77l.38,5.39.21,2.69c.06.89.22,1.79.33,2.68.95,7.16,2.29,20.13,3.37,27.27s2.24,14.28,3.53,21.41q-1-10.77-2.3-21.5c-.87-7.15-2.12-20.12-3.11-27.27-.11-.89-.28-1.78-.35-2.68l-.22-2.69-.47-5.37q-.46-5.38-1-10.75Q429.7,257.34,428.45,246.59Z"></path><path d="M395.27,247.5c-1,6.35-1.5,12.74-1.92,19.13s-.8,12.81-.59,19.21.17,17.15.38,23.56.48,12.81.86,19.22q.31-9.62.33-19.21c0-6.4,0-17.14-.05-23.54l-.09-4.8,0-1.2,0-1.19.07-2.4.26-9.59.32-9.6C394.93,253.89,395.1,250.7,395.27,247.5Z"></path><path d="M415.11,254.52l-3.45-18.32s-9.44-1.29-14.29-5.45c0,0,3.14,5.52,12,7.65l3.43,16.18.09,28.36Z"></path></g><g id="freepik--Top--inject-128"><g id="freepik--Arm--inject-128"><path d="M366.94,175.69s-10-5.79-13.9-8.33l-.27-.18c-3.36-2.22-3.87-3.76-5.29-6.08-.09-.16-.19-.32-.3-.49-1.7-2.65-3.86-3.58-5.87-5.9s-2.66-3.94-3.72-2.4,1.05,4.86,1.38,5.64c.45,1,2.06,2.63-.12,2a10.79,10.79,0,0,1-4.59-2.34c-1.45-1.29-2.66-2.83-4.12-4.11a3,3,0,0,0-1.21-.73,1.17,1.17,0,0,0-1.27.42,2.75,2.75,0,0,0-2.08-1,1.45,1.45,0,0,0-1.4,1.58,13.34,13.34,0,0,0,1,2.23,3.87,3.87,0,0,0-.48.68,3.2,3.2,0,0,0-.07,2.36,7.21,7.21,0,0,0,1.22,2.09c-1.12,1.33,0,2.9.87,3.92a31,31,0,0,0,3.67,3.67,40.91,40.91,0,0,0,9,5.35c1,.47,2.11,1,3.1,1.5a19.44,19.44,0,0,1,3.54,2.92,125.62,125.62,0,0,0,11,10c6.46,5.38,9,7.13,14.1,3.15Z" style="fill:#b16668"></path><path d="M343.84,170.33c-.38-.57-.84-1.08-1.19-1.67a8.52,8.52,0,0,1-.89-2,10.51,10.51,0,0,1-.37-2.22,8.08,8.08,0,0,1,0-1.1c0-.34.12-.68.12-1,0-.09-.15-.39-.25-.21a5.43,5.43,0,0,0-.41,2.23,7.64,7.64,0,0,0,.31,2.32,9.24,9.24,0,0,0,.89,2.07,5.42,5.42,0,0,0,1.7,1.92C343.91,170.72,343.89,170.4,343.84,170.33Z" style="fill:#9a4a4d"></path><path d="M354.3,167.89l-2.38-1.64a11.16,11.16,0,0,1-1.69,6.61A18.9,18.9,0,0,1,345.1,178l2.16,2.06s2.3.13,5.42-4.29S354.3,167.89,354.3,167.89Z" style="fill:#ebebeb"></path><path d="M365.53,174.2s11.62-11.26,16-15.39c4.05-3.78,6.07-5.51,8.46-6.84,3.07-1.7,6-2,9.2-2.56L398,172.15s-11.06,10-19.45,15.86c-4,2.8-8.15,5.85-12.1,6.32-2.28-.1-4.21-1.56-8.15-4.31C357,189.13,346.61,180,346.61,180c4.53-2.67,7.43-6.06,7.37-12.45Z" style="fill:#37474f"></path></g><g id="freepik--Chest--inject-128"><path d="M440.08,151.32s6.22,4.44,4.13,16.34a168.91,168.91,0,0,0-2.34,23.48c-.05,6.22,1.71,24.63,1.71,24.63-8.94,11.75-50.61,10.7-56.22.82,0,0,.14-41.9,1.88-51.16,1.51-8.07,4.84-12.91,7.8-15.34l12.23-3.58,13.24.56Z" style="fill:#f5f5f5"></path></g><g id="freepik--Head--inject-128"><path d="M430.61,114.47a7.77,7.77,0,0,0-.83-1.41,4.39,4.39,0,0,0-2.86-1.81,5.32,5.32,0,0,0-1.37-4.21,10.69,10.69,0,0,0-3.72-2.6c-6.64-3.12-14.8-3.14-20.77,1.5a13.44,13.44,0,0,0-5.22,8.75,5.82,5.82,0,0,0,.48,3.5,4.28,4.28,0,0,0,4.06,2.17l5.17-.52,11.18-1.14,2.9-.29a12.74,12.74,0,0,0,0,3.68c.44,3.29,4.26,6.52,4.26,6.52l-.08,4.6.06,6.59a4.25,4.25,0,0,0,2.39-2.05,34.15,34.15,0,0,0,3.79-9.6C431,124,432.57,118.62,430.61,114.47Z" style="fill:#263238"></path><path d="M429.87,134.92c-3.36,1.78-5-.86-5-.86v14.81c-6.24,9-23.85,6.09-16.91-.73l-.12-4.17a19.25,19.25,0,0,1-3-.21c-4.52-.62-6.08-3.58-6.8-6.9-1.09-5.05-.79-12.14,0-19.63a5.27,5.27,0,0,1,2.36-4.14c3.56-1.92,7,.55,12.13,2.34,2.12.74,7.21.92,8.53.24-1.7,2-.5,7,0,8.59.76,2.28,1.77,3.37,2.26,3.45,2.08.36,2.26-1.42,3.15-2.43a3.81,3.81,0,0,1,6,1.16A6.19,6.19,0,0,1,429.87,134.92Z" style="fill:#b16668"></path><path d="M423,136.07c-.71,8-7.42,9.27-15.09,9.72l-.05-1.82s2.33-.19,5.61-.71C421.21,142,423,136.07,423,136.07Z" style="fill:#9a4a4d"></path><path d="M412.52,120.64l3.39,1.33a1.9,1.9,0,0,0-1.06-2.41A1.78,1.78,0,0,0,412.52,120.64Z" style="fill:#263238"></path><path d="M399.91,121.57l3.48-1.14a1.75,1.75,0,0,0-2.25-1.21A1.92,1.92,0,0,0,399.91,121.57Z" style="fill:#263238"></path><path d="M414.25,124.36a1.49,1.49,0,1,1-1.49-1.48A1.49,1.49,0,0,1,414.25,124.36Z" style="fill:#263238"></path><path d="M403.25,123.78a1.48,1.48,0,1,1-1.48-1.48A1.49,1.49,0,0,1,403.25,123.78Z" style="fill:#263238"></path><path d="M408,122.68l-1.19,8.85-4.59-1A17.62,17.62,0,0,1,408,122.68Z" style="fill:#9a4a4d"></path><path d="M411.94,132.5l-5.07,2.1a2.69,2.69,0,0,0,3.54,1.58A2.88,2.88,0,0,0,411.94,132.5Z" style="fill:#9a4a4d"></path><path d="M411.46,133.48a2.53,2.53,0,0,1,.65-.11,2.81,2.81,0,0,1-1.7,2.81,2.61,2.61,0,0,1-.85.19A2.5,2.5,0,0,1,411.46,133.48Z" style="fill:#f28f8f"></path></g><g id="freepik--Tie--inject-128"><path d="M407.13,159.36s-2.29-4.29-2.31-6l2.72-2.84.91,7Z" style="fill:#4267B2"></path><path d="M407.13,159.36s-2.29-4.29-2.31-6l2.72-2.84.91,7Z" style="opacity:0.2"></path><polygon points="410.86 157.81 415.51 154.61 419.42 157.19 412.28 160.91 410.86 157.81" style="fill:#4267B2"></polygon><polygon points="410.86 157.81 415.51 154.61 419.42 157.19 412.28 160.91 410.86 157.81" style="opacity:0.2"></polygon><path d="M413.51,201.09c-2.55-13.3-3.14-34.18-2.89-37.84l-2.55-.23c-1.74,4.4-6.76,25.81-6.56,36.2-.09,3.62,4.65,13.29,7.1,13.36S413.92,203.26,413.51,201.09Z" style="fill:#4267B2"></path><path d="M413.51,201.09c-2.55-13.3-3.14-34.18-2.89-37.84l-2.55-.23c-1.74,4.4-6.76,25.81-6.56,36.2-.09,3.62,4.65,13.29,7.1,13.36S413.92,203.26,413.51,201.09Z" style="fill:#fff;opacity:0.1"></path><path d="M407.87,163.58l.19-.55h0l2.55.23h0a11,11,0,0,0,0,1.13A4.52,4.52,0,0,1,407.87,163.58Z" style="opacity:0.5"></path><path d="M410.93,157.46a10.58,10.58,0,0,0-2.42-.08,5.75,5.75,0,0,0-1.38,2,8.67,8.67,0,0,0,.94,3.66,3,3,0,0,0,2.55.23,5.33,5.33,0,0,0,1.82-2.47A4.85,4.85,0,0,0,410.93,157.46Z" style="fill:#4267B2"></path><path d="M410.93,157.46a10.58,10.58,0,0,0-2.42-.08,5.75,5.75,0,0,0-1.38,2,8.67,8.67,0,0,0,.94,3.66,3,3,0,0,0,2.55.23,5.33,5.33,0,0,0,1.82-2.47A4.85,4.85,0,0,0,410.93,157.46Z" style="fill:#fff;opacity:0.1"></path></g><path d="M429.55,148.44a63.6,63.6,0,0,1-7.66,17.66c-5.66,9-15.34,19.75-15.34,19.75S401,166.58,406,147.36l-10.55,2.74s-6.37,5.83-7.1,20.66-.92,49.43-.92,49.43,7.28,11.51,38.95,8.62c13.44-1.22,17.93-7.7,17.93-7.7S442.71,198.78,443,191s1.89-18.09,2.21-24.25-2.1-14.78-2.1-14.78Z" style="fill:#455a64"></path><path d="M410.87,157.45c.09,0,.2.19.28.21,1.76-1,2-1.32,2.52-1.19.9.24,3.06,3.94,3.6,5.14s.44,1.18,2.07.06a29.12,29.12,0,0,0,7.34-7.28,21.78,21.78,0,0,0,2.87-5.95s-1.9-2.56-2.47-3.54c-1.09-1.9-1.15-2.72-2.24-2.54v1.06c-.17,1.67-2.4,3.52-4.7,5.57s-6,4-6.91,4.88A18.08,18.08,0,0,0,410.87,157.45Z" style="fill:#e6e6e6"></path><path d="M402.44,159c.27.68,2.35-4.66,3.42-4.57.51,0,1.68,1.46,2.65,3l.72,0a16.29,16.29,0,0,1-1.15-4,42.7,42.7,0,0,1-.13-5.17l-.12-4.17c-.28,0-.54,0-.89,0-.27.28-1.22,1.93-1.49,2.38-1,1.71-2.63,4.67-2.94,6.7A17.72,17.72,0,0,0,402.44,159Z" style="fill:#e6e6e6"></path><g id="freepik--arm--inject-128"><g id="freepik--arm--inject-128"><path d="M420.31,175.37c-2.73-2.31-4.13-3.23-5.44-3.69s-5.89-2.71-7.66-3.27c-1.12-.35-1.7,1.43-.32,2.77,1.06,1,3.89,2.47,5.12,3.25s3.55,4,3.55,4Z" style="fill:#9a4a4d"></path><path d="M454.92,163c-2.47-6.24-4.89-8.1-11.31-10.19-6.87,5.92-3,22.3-3,22.3L445,191s-12.13-3.33-14-4.69-6.73-7.29-8.37-9.07c-2.23-2.43-3.43-2.2-4.65-2.09-4,.34-4.89.62-5.76,1.1a1.79,1.79,0,0,0-.86,1.5c-1.06.06-2.63-.07-2.94,1.64a5.22,5.22,0,0,0-.15,1.38,1.19,1.19,0,0,0-.71.35c-.93,1,.35,4.56,1.25,5.47a3.41,3.41,0,0,0,2.84.69c1.07-.08.65-1.19.65-1.19l1.48.18c3.08,2.48,3,7,7.15,8.29a28.12,28.12,0,0,1,5.13,1.33c9,3.64,20,12.21,28.13,13.42,7.93,1.18,9.38-1.76,9.33-6.65C463.43,194.83,457.38,169.27,454.92,163Z" style="fill:#b16668"></path><path d="M438.49,188.91l-2.82-1c.69,2.82-1.29,8.63-4.86,10.61l2.73,1.58s2.91-.66,4.26-4.57A12.85,12.85,0,0,0,438.49,188.91Z" style="fill:#ebebeb"></path><path d="M411.36,177.73l5-.16-4.91-.48A1.78,1.78,0,0,0,411.36,177.73Z" style="fill:#9a4a4d"></path><path d="M408.27,180.75l5.45-.36-5.42-.26A3.11,3.11,0,0,0,408.27,180.75Z" style="fill:#9a4a4d"></path><path d="M412.79,185.31a2.19,2.19,0,0,1-.61-1.09,17.31,17.31,0,0,1-1.88-.24,6,6,0,0,1-.71-.25,2,2,0,0,1-.75-.55,1.65,1.65,0,0,0,.68.68,3.29,3.29,0,0,0,.8.33l.27.69a1.07,1.07,0,0,0-.58.18,1.37,1.37,0,0,0-.51.68,1.72,1.72,0,0,1,.58-.56,1.13,1.13,0,0,1,.74-.09,2.35,2.35,0,0,1,1.48,1l1.48.18A10.55,10.55,0,0,1,412.79,185.31Z" style="fill:#9a4a4d"></path></g><path d="M443.07,152c-2,1.16-5.92,8-3.53,19.41s4.78,18.84,4.78,18.84-5.2-1.34-6.2-1.71a10.47,10.47,0,0,1-1.2,6.42,12.29,12.29,0,0,1-4.55,5c1.26.91,5.75,3.18,9.93,5.4,6.28,3.33,12.88,5.24,16.3,4.62,4.95-.88,5.43-3.25,5.23-8.71s-5-25-6.29-30.62S455.37,155,443.07,152Z" style="fill:#37474f"></path><path d="M444.32,190.26c5.06.93,8.84,2.29,10.86,4.65-1-4.2-5.73-5.76-11.6-7.1Z" style="fill:#263238"></path></g></g></g></g></g><g id="freepik--character-2--inject-128"><g id="freepik--Judge--inject-128"><path d="M171.24,313.82a5.2,5.2,0,0,0,.11,1.08,2.5,2.5,0,0,0,1,1.51l0,0a2.86,2.86,0,0,0,3-.23,9.1,9.1,0,0,0,4.12-7.14,2.91,2.91,0,0,0-1.16-2.61h0l-.2-.12h0a2.59,2.59,0,0,0-1.75-.07,5.44,5.44,0,0,0-1,.44A9.1,9.1,0,0,0,171.24,313.82Z" style="fill:#455a64"></path><path d="M172.36,305a3.78,3.78,0,0,1,1.84-.55,2.17,2.17,0,0,1,1.16.32l.1.06,2.66,1.53a2.59,2.59,0,0,0-1.75-.07,5.44,5.44,0,0,0-1,.44,9.1,9.1,0,0,0-4.12,7.13,5.2,5.2,0,0,0,.11,1.08,2.5,2.5,0,0,0,1,1.51l-2.73-1.58,0,0-.23-.14-.07-.05a3.05,3.05,0,0,1-1-2.53A9.13,9.13,0,0,1,172.36,305Z" style="fill:#263238"></path><path d="M215.81,289.85a5,5,0,0,0,.12,1.08,2.46,2.46,0,0,0,1,1.51l0,0a2.84,2.84,0,0,0,3-.23,9.1,9.1,0,0,0,4.12-7.14,2.92,2.92,0,0,0-1.16-2.61h0l-.2-.12h0a2.59,2.59,0,0,0-1.75-.07,5.15,5.15,0,0,0-1,.45A9.1,9.1,0,0,0,215.81,289.85Z" style="fill:#455a64"></path><path d="M216.94,281a3.77,3.77,0,0,1,1.83-.56,2.27,2.27,0,0,1,1.16.32l.1.06,2.66,1.53a2.59,2.59,0,0,0-1.75-.07,5.15,5.15,0,0,0-1,.45,9.1,9.1,0,0,0-4.12,7.12,5,5,0,0,0,.12,1.08,2.46,2.46,0,0,0,1,1.51l-2.73-1.58,0,0-.23-.14a.12.12,0,0,1-.07-.05,3,3,0,0,1-1-2.53A9.07,9.07,0,0,1,216.94,281Z" style="fill:#263238"></path><path d="M207.86,323.18a5.17,5.17,0,0,1-.12,1.08,2.52,2.52,0,0,1-1,1.51l0,0a2.84,2.84,0,0,1-3-.23,9.09,9.09,0,0,1-4.12-7.14,2.91,2.91,0,0,1,1.16-2.61h0l.2-.12h0a2.59,2.59,0,0,1,1.75-.07,4.56,4.56,0,0,1,1,.44A9.12,9.12,0,0,1,207.86,323.18Z" style="fill:#455a64"></path><path d="M206.73,314.32a3.75,3.75,0,0,0-1.83-.55,2.17,2.17,0,0,0-1.16.32l-.11.06L201,315.68a2.59,2.59,0,0,1,1.75-.07,4.56,4.56,0,0,1,1,.44,9.12,9.12,0,0,1,4.12,7.13,5.17,5.17,0,0,1-.12,1.08,2.52,2.52,0,0,1-1,1.51l2.73-1.58,0,0,.23-.14.07,0a3,3,0,0,0,1-2.53A9.09,9.09,0,0,0,206.73,314.32Z" style="fill:#263238"></path><path d="M236.79,309a5.2,5.2,0,0,1-.11,1.08,2.48,2.48,0,0,1-1,1.5l0,0a2.86,2.86,0,0,1-3-.23,9.13,9.13,0,0,1-4.12-7.14,2.93,2.93,0,0,1,1.16-2.61v0l.2-.11h0a2.53,2.53,0,0,1,1.75-.07,4.37,4.37,0,0,1,1,.44A9.07,9.07,0,0,1,236.79,309Z" style="fill:#455a64"></path><path d="M235.67,300.15a3.8,3.8,0,0,0-1.84-.56,2.18,2.18,0,0,0-1.16.33l-.1.06-2.66,1.53a2.53,2.53,0,0,1,1.75-.07,4.37,4.37,0,0,1,1,.44,9.07,9.07,0,0,1,4.12,7.13,5.2,5.2,0,0,1-.11,1.08,2.48,2.48,0,0,1-1,1.5l2.73-1.57,0,0,.23-.14.07,0a3.07,3.07,0,0,0,1-2.53A9.1,9.1,0,0,0,235.67,300.15Z" style="fill:#263238"></path><path d="M180.86,291.62a5.05,5.05,0,0,1-.11,1.08,2.47,2.47,0,0,1-1,1.51l0,0a2.86,2.86,0,0,1-3-.24,9.1,9.1,0,0,1-4.12-7.13,3,3,0,0,1,1.16-2.62h0l.2-.11h0a2.53,2.53,0,0,1,1.75-.07,4.19,4.19,0,0,1,1,.44A9.07,9.07,0,0,1,180.86,291.62Z" style="fill:#455a64"></path><path d="M179.74,282.77a3.8,3.8,0,0,0-1.83-.56,2.22,2.22,0,0,0-1.17.33l-.1,0L174,284.13a2.53,2.53,0,0,1,1.75-.07,4.19,4.19,0,0,1,1,.44,9.07,9.07,0,0,1,4.12,7.12,5.05,5.05,0,0,1-.11,1.08,2.47,2.47,0,0,1-1,1.51l2.73-1.58.05,0,.23-.14a.15.15,0,0,0,.07-.05,3,3,0,0,0,1-2.53A9.1,9.1,0,0,0,179.74,282.77Z" style="fill:#263238"></path><polygon points="205.46 282.92 220.17 278.7 220.17 281.84 205.46 290.32 205.46 282.92" style="fill:#ebebeb"></polygon><polygon points="205.46 282.92 204.01 282.03 218.76 278 220.17 278.7 205.46 282.92" style="fill:#f5f5f5"></polygon><polygon points="199.1 292.29 178.24 284.48 178.24 281.3 199.1 283.16 199.1 292.29" style="fill:#ebebeb"></polygon><polygon points="178.24 281.3 179.77 280.89 200.34 282.22 199.1 283.16 178.24 281.3" style="fill:#f5f5f5"></polygon><path d="M198.54,291.29c0,2.36,7.25,2.36,7.25,0V270.66h-7.25Z" style="fill:#fafafa"></path><path d="M204,285.92l4,25.9h-2.72l-3.73-25.9A4.37,4.37,0,0,0,204,285.92Z" style="fill:#f5f5f5"></path><polygon points="201.51 285.92 201.51 293.03 205.24 316.2 205.24 311.82 201.51 285.92" style="fill:#ebebeb"></polygon><rect x="205.24" y="311.82" width="2.73" height="4.38" style="fill:#e0e0e0"></rect><polygon points="200.26 292.82 173.37 306.92 173.37 302.58 200.26 285.94 200.26 292.82" style="fill:#ebebeb"></polygon><path d="M200.27,285.94a3,3,0,0,1-1.73-.78l-26.85,16.28,1.68,1.14Z" style="fill:#f5f5f5"></path><polygon points="173.37 306.92 173.37 302.58 171.69 301.44 171.69 305.65 173.37 306.92" style="fill:#e0e0e0"></polygon><polygon points="234.17 301.94 205.44 292.1 205.44 285.65 234.17 297.6 234.17 301.94" style="fill:#ebebeb"></polygon><path d="M205.44,285.65c.23-.07.33-.48.35-1.12L235,297.25l-.85.35Z" style="fill:#f5f5f5"></path><polygon points="235.02 297.25 235.02 301.45 234.17 301.94 234.17 297.6 235.02 297.25" style="fill:#e0e0e0"></polygon><rect x="205.24" y="311.82" width="2.73" height="4.38" style="opacity:0.1"></rect><polygon points="173.37 306.92 173.37 302.58 171.69 301.44 171.69 305.65 173.37 306.92" style="opacity:0.1"></polygon><polygon points="235.02 297.25 235.02 301.45 234.17 301.94 234.17 297.6 235.02 297.25" style="opacity:0.1"></polygon><path d="M208.31,234.73H196v42.54c0,3.53,12.29,3.53,12.29,0Z" style="fill:#f0f0f0"></path><path d="M158.6,228.84l47.07-24.59s3.31-16.1-7.84-33.64c0,0,3.32-31.28-2.25-41.68-4.07-7.94-9-6.85-9-6.85l-53.46,24.13Z" style="fill:#4267B2"></path><path d="M158.6,228.84l47.07-24.59s3.31-16.1-7.84-33.64c0,0,3.32-31.28-2.25-41.68-4.07-7.94-9-6.85-9-6.85l-53.46,24.13Z" style="fill:#fff;opacity:0.4"></path><path d="M186.62,122.08l-53.46,24.13,1.76,5.71,58.46-26.39C189.94,121.35,186.62,122.08,186.62,122.08Z" style="fill:#4267B2"></path><path d="M186.62,122.08l-53.46,24.13,1.76,5.71,58.46-26.39C189.94,121.35,186.62,122.08,186.62,122.08Z" style="fill:#fff;opacity:0.5"></path><path d="M186.82,172.11c.11.83.83,1.14,1.61.69a2.54,2.54,0,0,0,1.2-2.31c-.12-.83-.83-1.14-1.61-.69A2.54,2.54,0,0,0,186.82,172.11Z" style="fill:#fff;opacity:0.4"></path><path d="M178.67,176.82c.11.82.83,1.13,1.61.69a2.51,2.51,0,0,0,1.19-2.31c-.11-.83-.82-1.14-1.6-.69A2.53,2.53,0,0,0,178.67,176.82Z" style="fill:#fff;opacity:0.4"></path><path d="M170.52,181.52a1,1,0,0,0,1.6.7,2.52,2.52,0,0,0,1.2-2.32c-.11-.82-.83-1.13-1.6-.69A2.54,2.54,0,0,0,170.52,181.52Z" style="fill:#fff;opacity:0.4"></path><path d="M162.37,186.23c.11.83.83,1.14,1.6.69a2.51,2.51,0,0,0,1.2-2.31c-.11-.83-.83-1.14-1.6-.69A2.54,2.54,0,0,0,162.37,186.23Z" style="fill:#fff;opacity:0.4"></path><path d="M259.47,224.31v2.59a9.4,9.4,0,0,1-4.58,7.58L202.41,262a10.47,10.47,0,0,1-9.06-.19l-30.27-17.47a9.91,9.91,0,0,1-4.48-7.76V234a9.38,9.38,0,0,1,4.59-7.57l49.67-25.95a11.36,11.36,0,0,1,9.21-.08l32.77,16.4A9.16,9.16,0,0,1,259.47,224.31Z" style="fill:#4267B2"></path><path d="M259.47,224.31v2.59a9.4,9.4,0,0,1-4.58,7.58L202.41,262a10.47,10.47,0,0,1-9.06-.19l-30.27-17.47a9.91,9.91,0,0,1-4.48-7.76V234a9.38,9.38,0,0,1,4.59-7.57l49.67-25.95a11.36,11.36,0,0,1,9.21-.08l32.77,16.4A9.16,9.16,0,0,1,259.47,224.31Z" style="opacity:0.2"></path><path d="M202.41,249.09l52.48-27.55c2.53-1.33,2.51-3.44,0-4.72l-32.77-16.4a11.36,11.36,0,0,0-9.21.08l-49.67,25.95c-2.53,1.32-2.58,3.55-.11,5l30.27,17.47A10.47,10.47,0,0,0,202.41,249.09Z" style="fill:#4267B2"></path><path d="M199,262.93a10.19,10.19,0,0,1-5.69-1.09l-30.27-17.47a9.9,9.9,0,0,1-4.47-7.76V234a9.43,9.43,0,0,1,3.93-7.16c-1.87,1.33-1.69,3.29.54,4.58l30.27,17.48A9.63,9.63,0,0,0,198,250Z" style="opacity:0.2"></path><path d="M199,262.93a10.19,10.19,0,0,1-5.69-1.09l-30.27-17.47a9.9,9.9,0,0,1-4.47-7.76V234a9.43,9.43,0,0,1,3.93-7.16c-1.87,1.33-1.69,3.29.54,4.58l30.27,17.48A9.63,9.63,0,0,0,198,250Z" style="opacity:0.2"></path><path d="M186.62,122.08s7.74-5.24,15.9-.53,5.46,20.55,4.59,30.76-1.16,28,6,34.47,30.55-2.13,40.77-2.13l-9,33.22c-9.93-5.41-25.82-11-39.19-13.62,0,0,.44-20.7-9-32.53,0,0,3.5-8.28,1.21-24.87C195.71,131.49,192.84,125.67,186.62,122.08Z" style="fill:#4267B2"></path><path d="M186.62,122.08s7.74-5.24,15.9-.53,5.46,20.55,4.59,30.76-1.16,28,6,34.47,30.55-2.13,40.77-2.13l-9,33.22c-9.93-5.41-25.82-11-39.19-13.62,0,0,.44-20.7-9-32.53,0,0,3.5-8.28,1.21-24.87C195.71,131.49,192.84,125.67,186.62,122.08Z" style="opacity:0.1"></path><path d="M244.86,217.87c-.46-3-2.35-20.06.84-27.5,2.77-6.47,10.05-6.85,12.34-4.08s.24,6.13-3.4,10.88c-3.07,4-4.18,7.75-4.18,17.46Z" style="fill:#4267B2"></path><path d="M244.86,217.87c-.46-3-2.35-20.06.84-27.5,2.77-6.47,10.05-6.85,12.34-4.08s.24,6.13-3.4,10.88c-3.07,4-4.18,7.75-4.18,17.46Z" style="fill:#fff;opacity:0.6000000000000001"></path><g id="freepik--character--inject-128"><g id="freepik--bottom--inject-128"><path d="M228.49,265.43c-4-.59-7.4,2.53-7.74,3.53-.46,1.37-.36,4.15,1.2,7.6a23.69,23.69,0,0,1,1.58,10.81c-.33,3.12-1.95,10.92,1.15,14.9s10.07,7.51,12.65,2.17c.84-1.75-.7-7.87-1.36-12.34-1.33-8.89-2.32-17.71-2.32-17.71Z" style="fill:#263238"></path><path d="M227.93,287.23c.1,3.81,1,6.45,2.42,8.33,1.78,2.37,6.29,3.75,5.83-1.16-.32-3.41-2.53-20-2.53-20l-6.52-1.9a85.16,85.16,0,0,1,.81,13c0,.6,0,1.17,0,1.72" style="fill:#c8856a"></path><path d="M222.09,267.42c-.23,2.93,1.23,10.73,5.09,17.31s9.36,14,10.38,18.63c.13-2.1-.69-5.94-1.29-9.37l0-.22c0-.2-.07-.4-.1-.6a2.56,2.56,0,0,1,0-.27l-.12-.75v0c-.42-2.77-.8-5.55-1.13-8-.26-2-.49-3.83-.67-5.34-.09-.75-.18-1.43-.25-2,0-.3-.06-.56-.09-.8-.11-1-.18-1.52-.18-1.52l-5.16-9c-.27,0-.52-.05-.77-.07A8.71,8.71,0,0,0,222.09,267.42Z" style="opacity:0.15"></path><path d="M246.31,214c-12.85-9.84-29.41-20.31-29.41-20.31L177.25,195l40.62,31.18,17.52,12.19s3.38-.22,1.24,5c-.68,1.66-1.71,5-2.81,8.77l7.92,22.7s5.28-7.47,11.12-22c5.91-14.71,6.33-19.58,5.78-22.53C257.91,226.51,256.8,222.05,246.31,214Z" style="fill:#455a64"></path><path d="M213.88,217.43l3.4,2.44c8.08,5.88,21.73,17.23,23.21,22.15.92,3,4.44,11.93,6.29,23.42,0,0-.16-7.6-.35-15.05C246.16,240,244.31,237,241,233.13c-3.21-3.74-20.44-14.56-21.64-15.28,3-2.34,4.56-7.21,4.59-9.68C223.93,208.17,219.43,215.59,213.88,217.43Z" style="fill:#263238"></path><path d="M236.2,297c-1-.16-1.25,1.63-2.11,3.86a12.37,12.37,0,0,0-1.1,6.81c.48,3,4.7,3.94,6.37,8s3.9,11.18,11.22,14.18,13.63,1.28,15.49-.91,1-4.69-3.34-8.48c-4.62-4-5.92-5.19-5.92-5.19Z" style="fill:#37474f"></path><path d="M233.92,288.83a19.08,19.08,0,0,1,1.65,4.37,12.9,12.9,0,0,1,.26,5.86,5.32,5.32,0,0,0,.87,3.54c.72,1.15,1.49,2.25,2.32,3.33,2.21,2.88,5.22,10.14,9.06,13.85s11.46,4.27,13.46,2.78a1.59,1.59,0,0,0,.47-2.41c-.61-.91-2.37-3-3.11-4.16-3.43-5.14-6.39-10.54-7.91-15.95-.23-.8-.9-6.27-1.75-13.49" style="fill:#c8856a"></path><path d="M244.33,245.66c-.78-4.67-2-7.27-5.69-10.67-8.58-7.91-24.5-17.5-24.5-17.5s1.38-14.16-1.3-22l-42.51-4.22a67.2,67.2,0,0,0,4.41,29c2,5,8.2,10.84,19.11,17.09,10.59,6.06,23.49,12.76,26.13,14.05s2.4,3.15,2.85,8.54c.45,5.56.75,7.89,5.68,18.77,1.86,4.11,3.93,7.16,5.41,10.08,5.7,2.61,10.85,2.05,15.32-2.28C247.53,272,245.12,250.33,244.33,245.66Z" style="fill:#455a64"></path></g><g id="freepik--top--inject-128"><g id="freepik--arm--inject-128"><path d="M259.47,213.21c-1.46-.58-3-1-4.42-1.63-1-.44-1.93-1-2.89-1.45-.3-.15-2.27-1.11-2-1.94s3.13.62,6.49.64,4.05-2.31,2.33-2.8a32.33,32.33,0,0,1-8.85-3.9c-3.13-2-9-1.52-11.48-2.73-3.09-1.53-17.73-12.06-17.73-12.06s-3.5-12.68-5.32-20.14c-2.41-9.9-3.46-14.68-9.13-16.66a14.33,14.33,0,0,0-5.24-.95L199.45,169s1.77,12.57,4.62,20.58c2.38,6.69,3,7.42,8,10.09,5.67,3,23.34,11.5,23.34,11.5,2.49,2,4.44,4.86,7.36,6.19a32.75,32.75,0,0,0,4.09,1.49,7.55,7.55,0,0,0,3.74.42,17.39,17.39,0,0,1,2-.5c.62,0,1.25.18,1.86.19,1.69,0,2.63-.77,3.86-1.76.89-.71,2.05-.69,3-1.21C263.59,214.84,260.55,213.64,259.47,213.21Z" style="fill:#c8856a"></path><path d="M200.46,148.85c2.77.05,6.46-2,11.44,2.26s4.7,9.18,5.51,14.63,4,21.32,4,21.32l12.42,9.08a6.24,6.24,0,0,0-5.52,3.49,14,14,0,0,0-.64,7.81s-15-6.61-18-8.45-4.79-3.75-7.42-12.36a101.82,101.82,0,0,1-3.47-17.92Z" style="fill:#263238"></path><path d="M247.55,208.08a12.54,12.54,0,0,0-1.62.06,8,8,0,0,1-1.94-.2,7.67,7.67,0,0,1-4.5-3.13c-.12-.17-.22.06-.15.18a7.15,7.15,0,0,0,3.52,3.21,7.66,7.66,0,0,0,2.46.56,3.5,3.5,0,0,0,2.3-.42C247.68,208.28,247.64,208.09,247.55,208.08Z" style="fill:#af6152"></path></g><path d="M181.06,229c-14-10.73-13.79-21.65-14.34-42.64-.45-17.6,0-30.92,4.73-33.35a93.1,93.1,0,0,1,12.77-4.41c4.81-1,16.24.24,16.24.24h0c7,4.24,12.77,8.16,16.1,13,3.48,5.11,2.82,12.4-1.45,17.58l2.11,12.91s5.84,3.51,13.57,9c8.76,6.2,24.55,16.27,27.23,23.31s1.18,13-2.23,22.42c-6.23,11.08-26.33,14.39-33.19,14-.49-1.91-.38-3.63-1-6.29-.44-1.87.29-2.2-8.69-6.38A167.5,167.5,0,0,1,181.06,229Z" style="fill:#37474f"></path><path d="M241.68,234.88a27.46,27.46,0,0,1,2.08,6.1c.35,1.52.49,3.1,1,4.58.1.31.27.65.59.72s.71-.34.78-.73a31,31,0,0,0,.71-7.94c-.44-6-3.89-10.5-8.33-14.23a24.73,24.73,0,0,0-10.56-5.21,1.15,1.15,0,0,0-1,.08c-.48.4-.07,1.18.36,1.63C232.14,224.91,238.54,228.67,241.68,234.88Z" style="fill:#263238"></path><g id="freepik--head--inject-128"><path id="freepik--Hair--inject-128" d="M195.22,132.54c-2.16,1.6-4.35,3.16-6.39,4.91a27.23,27.23,0,0,0-6.59,7.86c-2.21-2.7-4.68-5.17-6.91-7.84a29,29,0,0,1-5.42-8.87,15,15,0,0,1-.53-8.55c.53-2.08,2.56-5,4.87-5.39a4.86,4.86,0,0,1-.06-.85c.17-4.15,3.8-7.3,7.32-8.92a19.73,19.73,0,0,1,16.8.53,17.5,17.5,0,0,1,6.49,4.82,10.67,10.67,0,0,1,2,8c-.75,4.5-3.92,8.21-7.31,11-.17.14-.34.29-.51.42-.51.42-1,.83-1.56,1.24C196.67,131.47,196,132,195.22,132.54Z" style="fill:#263238"></path><path d="M184.49,116.71c-.05-.15-.23-.33-.41-.25-.38.18-.56.67-.83,1a6.85,6.85,0,0,1-1,.91,9.57,9.57,0,0,1-2.56,1.32,10.39,10.39,0,0,1-5.39.31s-.06.09,0,.1a9.48,9.48,0,0,0,8.62-1.2C183.46,118.47,184.75,117.55,184.49,116.71Z" style="fill:#455a64"></path><path d="M184.55,118.86a5.34,5.34,0,0,0-1,.83,12.13,12.13,0,0,1-1.24,1A11,11,0,0,1,180.1,122a8.79,8.79,0,0,1-5.14.53c-.06,0-.08.14,0,.16a7.25,7.25,0,0,0,5.67,0,11.22,11.22,0,0,0,2.49-1.38c.35-.26.69-.54,1-.83s.82-.61,1-1C185.17,119.21,184.88,118.69,184.55,118.86Z" style="fill:#455a64"></path><path d="M185,121.81c0-.08-.16-.22-.26-.19-.4.09-.56.46-.81.75a7,7,0,0,1-.76.78,6.63,6.63,0,0,1-2,1.26,8.13,8.13,0,0,1-4.71.26c-.1,0-.1.19,0,.22a6.71,6.71,0,0,0,5.38.08,7.61,7.61,0,0,0,2-1.19,7.22,7.22,0,0,0,.87-.88C184.91,122.55,185.17,122.28,185,121.81Z" style="fill:#455a64"></path><path d="M179.83,147.42c0-1.58-.39-10.7-.39-10.7-.06.59-2.59,2.93-5.49.46a6.09,6.09,0,0,1-1.34-8.33c1.67-2.31,5.45-2.24,7,1.46,1.08,1.33,3-.26,2.1-3.88.18-2.55,3.81-5.38,1.78-9.66,7.18-4.92,15.46-4.72,19.94-1a43.16,43.16,0,0,1,2,13.93c-.17,8.4-1.28,11.2-3.67,13.08-1.7,1.33-4.76,2.08-7.91,1.87l.06,1.36c.08,1.32.14,2.18,1.49,2.42,1.38,1.72,1.65,4.24-4,5.28-7.56,1.39-12.84-1.77-13.79-3.1C179.7,149.73,179.84,149,179.83,147.42Z" style="fill:#c8856a"></path><path d="M193.85,144.66c-5.64-.48-10.36-2.18-12.71-6.88,0,0,.68,3.83,2.79,5.43a17.31,17.31,0,0,0,10,3.08Z" style="fill:#af6152"></path><path d="M193.43,135.14c.49-.53,1.74-.25,1.71.58a.86.86,0,0,1-.72.84C193.53,136.72,192.68,136,193.43,135.14Z" style="fill:#af6152"></path><path d="M202.72,122.65l-3.28-1.37a1.7,1.7,0,0,1,2.27-1A1.88,1.88,0,0,1,202.72,122.65Z" style="fill:#263238"></path><path d="M187.81,122.94l3.22-1.6a1.73,1.73,0,0,0-2.36-.86A1.88,1.88,0,0,0,187.81,122.94Z" style="fill:#263238"></path><path d="M199.31,125.19a1.53,1.53,0,0,0,1.39,1.6,1.43,1.43,0,0,0,1.57-1.33,1.53,1.53,0,0,0-1.39-1.6A1.43,1.43,0,0,0,199.31,125.19Z" style="fill:#263238"></path><path d="M189.34,125.65a1.53,1.53,0,0,0,1.39,1.6,1.43,1.43,0,0,0,1.57-1.34,1.52,1.52,0,0,0-1.39-1.59A1.43,1.43,0,0,0,189.34,125.65Z" style="fill:#263238"></path><polygon points="201.14 130.52 196.43 132.67 195.18 123.6 201.14 130.52" style="fill:#af6152"></polygon><path d="M188.17,125.07S188,125,188,125h-.1l-.19,0-.36,0c-.21,0-.43,0-.65,0s-.47,0-.7.08a.4.4,0,0,0-.32.16c-.11.21.11.49.32.52a1,1,0,0,0,.42,0l.28-.05.64-.07.64,0c.12,0,.25,0,.27-.15A.38.38,0,0,0,188.17,125.07Z" style="fill:#af6152"></path><path d="M188.26,126.43c0-.08-.1-.21-.21-.2a4.17,4.17,0,0,0-1,.26l-.4.19a1.51,1.51,0,0,0-.46.27.27.27,0,0,0-.05.3.46.46,0,0,0,.15.23.46.46,0,0,0,.36,0,1.51,1.51,0,0,0,.22-.11l.44-.23.21-.11a2.91,2.91,0,0,0,.3-.17l.35-.23A.19.19,0,0,0,188.26,126.43Z" style="fill:#af6152"></path><path d="M204.61,124.27l-.09,0h-.12l-.13,0-.23,0-.42.1a1.05,1.05,0,0,0-.41.17.28.28,0,0,0-.12.21.27.27,0,0,0,.07.22l.08,0s.09,0,.09,0,0,0,0,0h.12l.18,0,.37-.07.41-.06.2,0a.25.25,0,0,0,.23-.21C204.9,124.5,204.76,124.27,204.61,124.27Z" style="fill:#af6152"></path><path d="M204.69,126.05a2,2,0,0,0-.64-.23,3.74,3.74,0,0,0-.73-.19c-.12,0-.19.08-.19.19a.4.4,0,0,0,.21.32,4.54,4.54,0,0,0,.65.23c.23.07.45.15.69.2s.2-.09.2-.19A.41.41,0,0,0,204.69,126.05Z" style="fill:#af6152"></path></g></g><g id="freepik--arm--inject-128"><path d="M219.47,201c-2.31,0-4.61.26-6.92.42a33.43,33.43,0,0,1-7.07-.17c-.1,0-.23-.07-.21-.17a.19.19,0,0,1,.09-.11,26.77,26.77,0,0,0,2.86-2,3.16,3.16,0,0,0,1.1-3.11.46.46,0,0,0-.11-.22c-.17-.19-.48-.13-.72,0-.75.27-1.38.7-2.15.91a17.12,17.12,0,0,1-2.36.52,28.85,28.85,0,0,0-2.92.4,10.42,10.42,0,0,0-3.58,1.84,6.14,6.14,0,0,1-3,1.38c-2.49.35-4.52.13-9.72-1.08-8.13-1.89-12.45-3.08-12.45-3.08l2.24-20.21c1.12-11.24-.71-19.91-3.69-22.19-2.94,1.26-6.63,3.64-8.2,5.59-2.8,3.48-3.42,6.1-4.78,17.8-.91,7.79-1.64,12.59-2.12,19.63-.73,11,.19,11.65,9.81,13.35a110.27,110.27,0,0,0,19,1.28h0c2.28,0,16.82,1.27,19.25,1a9.74,9.74,0,0,0,5.67-2.47c.38-.36.74-.76,1.12-1.13a3.17,3.17,0,0,1,1-.8c.31-.13.64-.21.95-.36a2.67,2.67,0,0,0,1.45-1.85c.3-1.12,1.56-1.36,2.52-1.63a55,55,0,0,0,6-1.81.23.23,0,0,0,.12-.1.25.25,0,0,0,0-.17C222.48,201.05,220.52,201,219.47,201Z" style="fill:#c8856a"></path><path d="M171.45,153c-4.81.89-7.39-.72-11.89,4.55s-1.65,13.76-2.24,17.65-2.52,20-2.61,25.33,1.13,8.51,4.84,9.78,21,2.46,26.68,2c0,0-1.48-1.9-1.19-6.11.4-5.71,2.77-6.17,2.77-6.17L173,196.27s1.7-13.42,2.47-19.29S176.29,158.38,171.45,153Z" style="fill:#263238"></path><path d="M173,196.27c-3.76-.67-9.87.08-12.26,1.94,0,0,2.52-4.29,12.51-3.88Z"></path></g></g><path d="M156.36,243.39l36.34,18.25-.77-13.39,5.6-3.23c-.4-10.38-3.25-21-10.59-23.39-9.19-2.91-21.12-3.85-28.26-10.32s-6.87-24.26-6-34.47,3.56-26.05-4.59-30.76-15.9.53-15.9.53c-3.49,2.26-7.54,3.9-7.19,6.64a3,3,0,0,0,2.48,2.8l20.28,76.76A16.56,16.56,0,0,0,156.36,243.39Z" style="fill:#4267B2"></path><g style="opacity:0.25"><path d="M156.36,243.39l36.34,18.25-.77-13.39,5.6-3.23c-.4-10.38-3.25-21-10.59-23.39-9.19-2.91-21.12-3.85-28.26-10.32s-6.87-24.26-6-34.47,3.56-26.05-4.59-30.76-15.9.53-15.9.53c-3.49,2.26-7.54,3.9-7.19,6.64a3,3,0,0,0,2.48,2.8l20.28,76.76A16.56,16.56,0,0,0,156.36,243.39Z" style="fill:#fff"></path></g><path d="M142.75,155.55c3.27,3.9,4.95,10.1,4.35,25.35s-.36,27.53,5.6,35c7.08,8.86,31.32,15.92,31.32,15.92l9.48-4.34a11.9,11.9,0,0,0-6.56-5.85c-9.19-2.91-21.12-3.85-28.26-10.32s-6.87-24.26-6-34.47,3.56-26.05-4.59-30.76-15.9.53-15.9.53c-3.49,2.26-7.54,3.9-7.19,6.64a3,3,0,0,0,2.48,2.8C132,154.56,139.49,151.64,142.75,155.55Z" style="fill:#4267B2"></path><path d="M142.75,155.55c3.27,3.9,4.95,10.1,4.35,25.35s-.36,27.53,5.6,35c7.08,8.86,31.32,15.92,31.32,15.92l9.48-4.34a11.9,11.9,0,0,0-6.56-5.85c-9.19-2.91-21.12-3.85-28.26-10.32s-6.87-24.26-6-34.47,3.56-26.05-4.59-30.76-15.9.53-15.9.53c-3.49,2.26-7.54,3.9-7.19,6.64a3,3,0,0,0,2.48,2.8C132,154.56,139.49,151.64,142.75,155.55Z" style="opacity:0.1"></path><path d="M192.23,248.25l5.6-3.23c0-6.21-1.6-19.72-9.46-23-6.25-2.59-9.26,1.22-9.19,3.57.08,2.64,1.69,4.39,4.84,6.21C188.21,234.23,192.23,238.55,192.23,248.25Z" style="fill:#4267B2"></path><path d="M192.23,248.25l5.6-3.23c0-6.21-1.6-19.72-9.46-23-6.25-2.59-9.26,1.22-9.19,3.57.08,2.64,1.69,4.39,4.84,6.21C188.21,234.23,192.23,238.55,192.23,248.25Z" style="fill:#fff;opacity:0.6000000000000001"></path></g></g><g id="freepik--character-1--inject-128"><g id="freepik--character--inject-128"><g id="freepik--Chair--inject-128"><path d="M154.09,375.18l-9.78-56.39-6.18-.31L151,375.17h0a.83.83,0,0,0,.41.55,2.44,2.44,0,0,0,2.2.11.74.74,0,0,0,.49-.65Z" style="fill:#263238"></path><path d="M62.14,309.53h-6.2L41.39,368.09h0a.74.74,0,0,0,.45.68,2.44,2.44,0,0,0,2.2,0,.83.83,0,0,0,.44-.54h0Z" style="fill:#37474f"></path><path d="M105,402l-.27-63.14-6.19-.32L101.85,402h0a.85.85,0,0,0,.42.56,2.44,2.44,0,0,0,2.2.11A.74.74,0,0,0,105,402Z" style="fill:#37474f"></path><path d="M95.93,289.88H89.74l-9.91,62.23h0a.76.76,0,0,0,.45.68,2.46,2.46,0,0,0,2.21,0,.84.84,0,0,0,.44-.53h0Z" style="fill:#263238"></path><g id="freepik--chair--inject-128"><path d="M44.31,241.14A35,35,0,0,0,41.84,252c-.71,8.33,2.11,35.32,3.81,47.38h0c2.45,20.16,5.45,20.19,9.82,23.57,7.52,5.8,29.13,17.18,36.27,20,12.93,5.09,23.51-2.76,31.39-6.65A182.22,182.22,0,0,0,144,323.93c2-1.43,3-2.88,3-4.41,0-.6,0-3.08,0-3.72,0-1.95-1.72-4-5.34-6.38-6.68-4.33-30.82-18.42-40.18-23.6a.1.1,0,0,0-.08-.08c-7.2-4.37-11.53-34.08-16.51-49.88-.11-.34-.21-.67-.33-1s-.17-.5-.26-.74a24,24,0,0,0-1-2.36" style="fill:#4267B2"></path><path d="M147,315.8c0-1.95-1.72-4-5.34-6.38-6.68-4.33-30.82-18.42-40.18-23.6a.1.1,0,0,0-.08-.08c-7.2-4.37-11.53-34.08-16.51-49.88A30.92,30.92,0,0,0,83.82,233l-.09-.21-.28-.64-.15-.32h0A15.25,15.25,0,0,0,80,227a7.5,7.5,0,0,0-1.63-1.14l-2.94-1.66c-4.89-2.92-11.3.59-19.29,5-5,2.72-9.22,6-11.8,12h0A35,35,0,0,0,41.84,252c-.71,8.33,2.11,35.32,3.81,47.38h0c2.45,20.16,5.45,20.19,9.82,23.57,7.52,5.8,29.13,17.18,36.27,20,12.93,5.09,23.51-2.76,31.39-6.65A182.22,182.22,0,0,0,144,323.93c2-1.43,3-2.88,3-4.41C147,318.92,147,316.44,147,315.8Z" style="fill:#4267B2"></path><path d="M147,315.8c0-1.95-1.72-4-5.34-6.38-6.68-4.33-30.82-18.42-40.18-23.6a.1.1,0,0,0-.08-.08c-7.2-4.37-11.53-34.08-16.51-49.88A30.92,30.92,0,0,0,83.82,233l-.09-.21-.28-.64-.15-.32h0A15.25,15.25,0,0,0,80,227a7.5,7.5,0,0,0-1.63-1.14l-2.94-1.66c-4.89-2.92-11.3.59-19.29,5-5,2.72-9.22,6-11.8,12h0A35,35,0,0,0,41.84,252c-.71,8.33,2.11,35.32,3.81,47.38h0c2.45,20.16,5.45,20.19,9.82,23.57,7.52,5.8,29.13,17.18,36.27,20,12.93,5.09,23.51-2.76,31.39-6.65A182.22,182.22,0,0,0,144,323.93c2-1.43,3-2.88,3-4.41C147,318.92,147,316.44,147,315.8Z" style="fill:#fff;opacity:0.25"></path><path d="M123.12,332.55A182.22,182.22,0,0,0,144,320.18c4.49-3.26,4.07-6.59-2.35-10.76C132.72,303.63,96.33,283,96.33,283s-46,27.15-44,32.17,30.45,20.52,39.42,24.05C104.66,344.29,115.24,336.44,123.12,332.55Z" style="fill:#4267B2"></path><path d="M123.12,332.55A182.22,182.22,0,0,0,144,320.18c4.49-3.26,4.07-6.59-2.35-10.76C132.72,303.63,96.33,283,96.33,283s-46,27.15-44,32.17,30.45,20.52,39.42,24.05C104.66,344.29,115.24,336.44,123.12,332.55Z" style="fill:#fff;opacity:0.6000000000000001"></path><path d="M78.34,225.83c-4.84-2.55-11.14.91-18.92,5.17-5,2.74-9.24,6-11.82,12l-3.29-1.9c2.58-6,6.82-9.28,11.8-12,8-4.38,14.4-7.89,19.29-5Z" style="fill:#4267B2"></path><path d="M78.34,225.83c-4.84-2.55-11.14.91-18.92,5.17-5,2.74-9.24,6-11.82,12l-3.29-1.9c2.58-6,6.82-9.28,11.8-12,8-4.38,14.4-7.89,19.29-5Z" style="fill:#fff;opacity:0.5"></path><path d="M84.87,235.86c-.11-.34-1.78-6.14-4.9-8.89a7.89,7.89,0,0,0-5.29-2c-4.23,0-9.31,2.8-15.26,6.06q-.75.41-1.47.84a6.32,6.32,0,0,0-.56.33l-.66.41-.48.31a28.89,28.89,0,0,0-3,2.28l-.44.41a20.47,20.47,0,0,0-1.71,1.77l-.28.33-.34.42-.33.44-.31.44a21.08,21.08,0,0,0-1.19,1.9c0,.09-.1.17-.14.26s-.19.35-.28.54-.26.53-.39.79a34.34,34.34,0,0,0-2.7,11.4c-1.15,13.69,3.54,58.93,8.24,62.83,0,0-.72-4.42,8.75-10.38,6.44-4.05,10.95-7.46,17.82-10.82,16.74-8.23,21.43-9.77,21.43-9.77C94.18,281.37,89.85,251.66,84.87,235.86Z" style="fill:#4267B2"></path><path d="M84.87,235.86c-.11-.34-1.78-6.14-4.9-8.89a7.89,7.89,0,0,0-5.29-2c-4.23,0-9.31,2.8-15.26,6.06q-.75.41-1.47.84a6.32,6.32,0,0,0-.56.33l-.66.41-.48.31a28.89,28.89,0,0,0-3,2.28l-.44.41a20.47,20.47,0,0,0-1.71,1.77l-.28.33-.34.42-.33.44-.31.44a21.08,21.08,0,0,0-1.19,1.9c0,.09-.1.17-.14.26s-.19.35-.28.54-.26.53-.39.79a34.34,34.34,0,0,0-2.7,11.4c-1.15,13.69,3.54,58.93,8.24,62.83,0,0-.72-4.42,8.75-10.38,6.44-4.05,10.95-7.46,17.82-10.82,16.74-8.23,21.43-9.77,21.43-9.77C94.18,281.37,89.85,251.66,84.87,235.86Z" style="fill:#fff;opacity:0.4"></path></g></g><g id="freepik--character--inject-128"><g id="freepik--bottom--inject-128"><path d="M131.53,351.68s-4.63,12.15-4.78,16.9c-.14,4.95-1.3,6.62-.34,12,.21,1.17.88,3.51,1.06,4.45a1.41,1.41,0,0,1-1.23,1.79c-2.14.49-5.8-3.46-7.6-7.81A130.44,130.44,0,0,1,114,363.62a6.81,6.81,0,0,1,.6-3.48,10.9,10.9,0,0,1,1-1.82c.66-2.17.91-6.27,1.44-9.12Z" style="fill:#ffbda7"></path><path d="M109.94,368.22a5.13,5.13,0,0,0-.54,1.64c0,1,2.28,4.19,3.18,5.35a8,8,0,0,1,1.74,5.59,13.66,13.66,0,0,0,3.51,8.73,21.7,21.7,0,0,0,11,6.81c5.25,1.49,7-1.17,7-1.17s1.56-2.55.56-3.56S109.94,368.22,109.94,368.22Z" style="fill:#263238"></path><path d="M115.58,358.32c-.16,0-.44,0-.84.46-.15.19-1,2.56-1.81,3.81s-2.77,3.63-3,5.63c1.3,3.84,5,6.44,5.61,10.08s.79,7.87,6.5,12.2,11.48,4.67,13.53,3.44,1.8-3.45-1.19-7.61c-3.16-4.41-5.45-14.09-5.45-14.09a32.06,32.06,0,0,1-.64-4.12,27.23,27.23,0,0,1,.29-4.11,3,3,0,0,0-.3-1.84,3.14,3.14,0,0,0-1.57-1,13,13,0,0,0-2.9-.91,4.5,4.5,0,0,0-3,.43c-.64.36-1.16.92-1.83,1.22a2.65,2.65,0,0,1-2.76-.43,2.29,2.29,0,0,1-.81-2.51A5.67,5.67,0,0,1,115.58,358.32Z" style="fill:#455a64"></path><path d="M118.69,387a8.92,8.92,0,0,1,8-4.58c6-.12,8.08,2.87,9,4.63,1.13,2.09,2.34,5.91-.09,7.07-2.63,1.26-5.71,1-10.6-1.35S118.69,387,118.69,387Z" style="fill:#fafafa"></path><path d="M119.36,369a.6.6,0,0,0,.54,0c.91-.49,5.75-1.62,8.65.94.36-.3.27-.84-.22-1.58-3.36-2-8-1-9-.39a.57.57,0,0,0-.22.79A.59.59,0,0,0,119.36,369Z" style="fill:#fafafa"></path><path d="M129.24,373.43a1.85,1.85,0,0,0-.38-1.63,11.16,11.16,0,0,0-8.62-.15.57.57,0,0,0-.22.8.59.59,0,0,0,.29.25.6.6,0,0,0,.54,0C121.73,372.21,126.33,371.14,129.24,373.43Z" style="fill:#fafafa"></path><path d="M131.85,381.42a3.39,3.39,0,0,0-.81-2.14c-3.35-1.92-7.83-.89-8.91-.31a.57.57,0,0,0-.21.8.67.67,0,0,0,.28.25.59.59,0,0,0,.55,0C123.71,379.49,129.05,378.26,131.85,381.42Z" style="fill:#fafafa"></path><path d="M121.26,376.36a.6.6,0,0,0,.54,0c.9-.49,5.64-1.59,8.54.86a2.09,2.09,0,0,0-.53-1.75,11.19,11.19,0,0,0-8.63-.15.57.57,0,0,0-.21.8A.64.64,0,0,0,121.26,376.36Z" style="fill:#fafafa"></path><path d="M139,366.67s3.41,16.18,6.54,22.39,4.74,9.22,9,13.89c.92,1,3,2.89,3.76,3.71a1.63,1.63,0,0,1-.11,2.5c-1.79,1.79-9.54,2.39-14-.77s-8.54-10-11.19-12.58c-1-1-1.94-1.95-2.84-3s-.66-2-.76-3.15c-.05-.55-.34-4.86-.34-4.86-1.2-2.91-3.13-6.9-4.55-9.71Z" style="fill:#ffbda7"></path><path d="M128.71,396.92a5.45,5.45,0,0,0,.29,1.8c.45.94,4.17,2.84,5.58,3.5a8.37,8.37,0,0,1,4.34,4.41,14.49,14.49,0,0,0,7.53,6.51,23,23,0,0,0,13.61,1.1c5.65-1.14,6-4.5,6-4.5s.23-3.16-1.2-3.62S128.71,396.92,128.71,396.92Z" style="fill:#263238"></path><path d="M129,384.8c-.15.07-.21.25-.34.92,0,.25.25,2.91.14,4.45s-.85,4.76-.09,6.75c3.08,3,7.81,3.65,10.16,6.76s4.55,7,12,8.33,13.06-1.17,14.39-3.32,0-4.11-4.79-6.58c-5.12-2.62-12-10.61-12-10.61a34.9,34.9,0,0,1-2.59-3.57,29,29,0,0,1-1.71-4,3.28,3.28,0,0,0-1.18-1.59,3.33,3.33,0,0,0-2-.21,14.13,14.13,0,0,0-3.17.55,4.81,4.81,0,0,0-2.57,1.84c-.43.65-.64,1.43-1.13,2a2.82,2.82,0,0,1-2.81.94,2.23,2.23,0,0,1-1.87-1.45Z" style="fill:#455a64"></path><path d="M146,410.35a9.45,9.45,0,0,1,5.32-8.2c5.55-3,9-1.22,10.74,0,2.08,1.43,5.07,4.43,3.34,6.7-1.86,2.45-4.91,3.66-10.63,3.86S146,410.35,146,410.35Z" style="fill:#fafafa"></path><path d="M138,393.13a.62.62,0,0,0,.5-.27c.62-.91,4.63-4.31,8.59-3.3.19-.46-.15-.93-1-1.39-4.15-.28-8,2.92-8.7,4a.6.6,0,0,0,.19.85A.62.62,0,0,0,138,393.13Z" style="fill:#fafafa"></path><path d="M149.39,392.47a2,2,0,0,0-1.15-1.35,11.79,11.79,0,0,0-8.18,4,.6.6,0,0,0,.18.85.62.62,0,0,0,.39.1.65.65,0,0,0,.51-.27C141.74,395,145.54,391.73,149.39,392.47Z" style="fill:#fafafa"></path><path d="M155.71,398.72a3.58,3.58,0,0,0-1.79-1.62c-4.08-.18-7.8,2.95-8.53,4a.6.6,0,0,0,.18.85.69.69,0,0,0,.39.1.66.66,0,0,0,.51-.28C147.12,400.85,151.54,397.11,155.71,398.72Z" style="fill:#fafafa"></path><path d="M143.3,399.1a.65.65,0,0,0,.5-.28c.61-.89,4.54-4.23,8.46-3.33a2.2,2.2,0,0,0-1.36-1.38,11.77,11.77,0,0,0-8.18,4,.61.61,0,0,0,.19.86A.76.76,0,0,0,143.3,399.1Z" style="fill:#fafafa"></path><path d="M103.4,274.46c6.76,4.71,26.75,18.59,36.35,27.08,2.77,2.45,6.65,7.48,5.29,15.87-1.56,9.7-14.55,38.28-14.55,38.28-6.26.29-14.59-5.18-14.59-5.18l.61-15.36L96.15,310.22Z" style="fill:#37474f"></path><path d="M134.74,345.94C126.09,339.05,98,297.7,98,297.7l1.14-.28c6.29-4.3,8.69-11.6,8.69-11.6.54,5.83-1.83,9.25-3.56,11.74,2.21,1.82,12.77,10.41,21.39,16.92,2.17,1.63,4.39,3.66,5.2,7.46C132.79,331.08,134.49,341.32,134.74,345.94Z" style="fill:#263238"></path><path d="M101.41,275.24h0l-39.08,8.39c-1.17,7.84-1,18.72,1.52,23.23S71.77,317,78,319.46c12.26,4.82,26.53,11.21,29.45,12.51,2.2,1,3.34,5.32,4.45,10.94,1.17,5.89,1.37,10.52,7.51,22.81,6,12,7.25,14.63,7.25,14.63s8.89.72,14.66-4.6c0,0-9-41.51-10.89-49-1-4.17-1.12-6.38-6.43-10.87-4.56-3.85-24.84-18.48-24.84-18.48S106.78,286.61,101.41,275.24Z" style="fill:#37474f"></path></g><g id="freepik--top--inject-128"><path d="M139.83,232.68c-.86,3.07-1.07,7.73-2.36,14.26l-14.07.13-.08-1.76c1.25-3.33,5.28-14,5.94-16,1-2.57,2.48-7.1,2.75-7.68,1.82-4,5.27-6.92,8.77-9.45l1.8-1.29a6.85,6.85,0,0,0,.86-.64c.25-.23.47-.41.84-.19a1.18,1.18,0,0,1,.49.73,3.61,3.61,0,0,1-.56,2.86,17.66,17.66,0,0,1-1.94,2.29c-.52.58.35.66.77.64,2.05-.11,4.73-2,6.4-3.09a25.21,25.21,0,0,1,3.25-2.27,4.12,4.12,0,0,1,2.38-.42c.55.09,1,.36.85,1a3,3,0,0,1-.74,1.06,3,3,0,0,0-1.07,2.21,7.11,7.11,0,0,1,.06,1.78,20.08,20.08,0,0,1-1,2.06,15.91,15.91,0,0,0-.17,1.92,5.7,5.7,0,0,1-1.31,1.93,18.31,18.31,0,0,1-3.55,3.2,19.84,19.84,0,0,1-4.78,2.67A6.46,6.46,0,0,0,139.83,232.68Z" style="fill:#ffbda7"></path><path d="M123.07,246.13a15.89,15.89,0,0,0-.17,10c-3-5.35-1.81-9.16-1-11.06Z" style="fill:#f0997a"></path><path d="M97.79,226.43c6,.75,7.28,2.51,11.07,5.92S123,245.47,123,245.47l4.56-12.21s.16,3.7,4.23,7,6.54,3.17,6.54,3.17-1.12,9.32-3.81,15.66-5.74,7.28-11.14,5.7-19.18-12.7-19.18-12.7Z" style="fill:#4267B2"></path><path d="M97.79,226.43c6,.75,7.28,2.51,11.07,5.92S123,245.47,123,245.47l4.56-12.21s.16,3.7,4.23,7,6.54,3.17,6.54,3.17-1.12,9.32-3.81,15.66-5.74,7.28-11.14,5.7-19.18-12.7-19.18-12.7Z" style="opacity:0.15"></path><path d="M123,245.47c-1.64,4.67-1.59,9.61-.25,12.42-3.16-2.81-3.17-8.79-1.62-14.16Z" style="opacity:0.35000000000000003"></path><path d="M140.89,218.44a13.2,13.2,0,0,1-4,6.17,5.45,5.45,0,0,0,3.22-2.06A5.16,5.16,0,0,0,140.89,218.44Z" style="fill:#f0997a"></path><path d="M62.66,285.66c2.92-10,4.82-15.74,4.78-18.86,0,0-3.54-15.53-4.11-19.2-1.49-9.56,0-14.14,1.92-15.25a69.22,69.22,0,0,1,7-2.68c6.56-2.19,16.08-2.86,22.28-3,2.32,0,3,.06,3,.06a56.67,56.67,0,0,1,8.69,7.23c5.18,5.49,6.89,9.26,6.37,15.17a14.09,14.09,0,0,1-2.94,7.06c-.25,2.86-.51,10.94-.51,10.94.22,3.16.76,5.84,1,8.15C105.91,290.49,73.21,293.56,62.66,285.66Z" style="fill:#fafafa"></path><g id="freepik--head--inject-128"><path d="M73.33,188.31a8.41,8.41,0,0,0-9.16,2.34c-2.19,2.59-2.56,6.21-2.78,9.59q-.57,8.79-.65,17.59c0,2.63-.4,5.24-.51,7.89q-.19,4.46-.24,8.91a3.27,3.27,0,0,0,.5,2.18,2.94,2.94,0,0,0,1.85.83,13.53,13.53,0,0,0,9.55-2.11c4.37-2.95,6.64-8.38,6.75-13.65a43.62,43.62,0,0,0-1.4-10.14,67.32,67.32,0,0,0-1.87-7.3c-.5-1.51-1.11-3-1.53-4.52a19.75,19.75,0,0,1-.21-9.66" style="fill:#263238"></path><path d="M69.93,188.41a9.64,9.64,0,0,0-3,5.34,2.7,2.7,0,0,0,.07,1.64,2,2,0,0,0,2.17,1,4,4,0,0,0,2.17-1.29,8.36,8.36,0,0,0,2.31-4.88c.1-.84,0-2.18-.88-2.66S70.62,187.78,69.93,188.41Z" style="fill:#4267B2"></path><path d="M101.92,199.68c1.77-4.22-.1-9.75-2.33-12.33-3.21-3.72-8.15-5.28-15.54-4.71-5.63.44-12.34,3-13.3,8.84-5.18,2.71-3.22,9.93-1.79,13,3,6.35,7.24,11.3,7.37,14.7Z" style="fill:#263238"></path><path d="M98.5,191c1.3.93,3.51,3.61,3.42,8.67-.1,1.53.48,3.4.6,6.25.49,10.79-2.4,13.17-5.26,14.57-1.71.84-2.66,1-5.44,1.1l.23,5s4.31,3.12,1.83,11.87h0c-13.49-8.28-17.27-12-17.28-12L76,214.32h0c-.07.06-1.66,1.59-4.44.24-3-1.45-4.38-6.36-2.55-8.73s4.63-1.09,5.94.88S79.2,208,78.16,205c1.35-.72,3-2.2,1.49-7.77A6.21,6.21,0,0,1,81,192c2.2-2.13,6.66-1.86,9.28.55C93.62,189.54,95.8,189.08,98.5,191Z" style="fill:#ffbda7"></path><path d="M90.41,212.89a2.39,2.39,0,0,1,3.06-1,1.31,1.31,0,0,0-.89.51.05.05,0,0,0,0,0,.07.07,0,0,0,0,.05,1.8,1.8,0,0,1,.31,2,1.54,1.54,0,0,1-1.45.68,1.4,1.4,0,0,1-1.19-.75A1.54,1.54,0,0,1,90.41,212.89Z" style="fill:#b16668"></path><polygon points="92.15 200.36 93.26 209.95 97.97 207.47 92.15 200.36" style="fill:#f0997a"></polygon><path d="M91.82,221.6c-3.47,0-11.17-1.95-13.18-6.46,0,0,.06,3.64,4.42,6,3.44,1.85,8.84,2.45,8.84,2.45Z" style="fill:#f0997a"></path><path d="M98.93,196.7a2.19,2.19,0,0,0-2.57,1.73l4.3.84A2.2,2.2,0,0,0,98.93,196.7Z" style="fill:#263238"></path><path d="M84.6,198.16a2.19,2.19,0,0,0-1,2.92l4-1.9A2.18,2.18,0,0,0,84.6,198.16Z" style="fill:#263238"></path><path d="M99.52,202.08c.3.71-.19,1-.87,1.27s-1.3.48-1.6-.23a1.35,1.35,0,0,1,.69-1.8A1.37,1.37,0,0,1,99.52,202.08Z" style="fill:#263238"></path><path d="M97.09,201.63a3.63,3.63,0,0,1,1-.43,2.78,2.78,0,0,1,1-.13,3.3,3.3,0,0,1,1.08.24s.06.09,0,.08a9.11,9.11,0,0,0-1,0,5.14,5.14,0,0,0-1.16.21,4.82,4.82,0,0,0-1.28.59,4.55,4.55,0,0,0-.41.26s-.08-.07-.06-.11A2.37,2.37,0,0,1,97.09,201.63Z" style="fill:#263238"></path><path d="M85.66,203.4c-.21.75.32.95,1,1.15s1.36.3,1.56-.44a1.34,1.34,0,1,0-2.59-.71Z" style="fill:#263238"></path><path d="M88,202.63a3.43,3.43,0,0,0-1-.29,2.8,2.8,0,0,0-1,0,3.24,3.24,0,0,0-1,.38s0,.09,0,.09a7.24,7.24,0,0,1,.94-.16,5.19,5.19,0,0,1,1.18.06,5,5,0,0,1,1.35.41l.44.2s.07-.07,0-.11A2.5,2.5,0,0,0,88,202.63Z" style="fill:#263238"></path><path d="M97.3,185.27,80.86,186c-10.9,4.88-6.17,19-3.77,20.6,6.47-3.08,5.74-9.64,5.09-13.37,3.48,3,9.16,5,11.79,5.2-1.28-1.4-2.46-5-2.46-5A13.38,13.38,0,0,0,97,198.86c4.17,2.16,6.87.47,6.87.47S104.76,189.35,97.3,185.27Z" style="fill:#263238"></path></g><path d="M77.59,225.74a34.06,34.06,0,0,0,1.77,6.12c1.52,4.22,2.16,7.63,2.84,16.78s-.73,52.18.72,62.51c-6.81.31-17.88-3.73-23.21-9a116.77,116.77,0,0,1,2.75-20.9c2-9.37,4.52-10.23,3.78-15.17S61,241.4,64.56,231.14a39.62,39.62,0,0,0,5.89-1.46C76.84,227.82,77.59,225.74,77.59,225.74Z" style="fill:#4267B2"></path><path d="M113.81,281.77c-1.75-1.25-3.41-2.42-4.91-3.47-.89-8.25-1.65-16.55-1.69-20.22-.11-7.92-1-13.95-5-20s-9.67-10-9.8-12.6l-.27-.9A13.21,13.21,0,0,0,95.47,226c2,.34,2.34.46,2.34.46s12.2,7.86,14.79,16.4-1,13.37-1,13.37a53.69,53.69,0,0,0-.12,7.62A164.78,164.78,0,0,0,113.81,281.77Z" style="fill:#4267B2"></path><path d="M76.42,222.11A13.13,13.13,0,0,1,72.54,229s2.16,8.25,2,12.36-.78,8.1.34,8a30.52,30.52,0,0,0,4.49-1.27s-2.54,4.11-2.22,5.35,5.17,15.09,5.17,15.09,1-16.33.55-21.08S81.15,234,79.24,229.08C77.89,225.61,76.42,222.11,76.42,222.11Z" style="fill:#4267B2"></path><path d="M76.42,222.11A13.13,13.13,0,0,1,72.54,229s2.16,8.25,2,12.36-.78,8.1.34,8a30.52,30.52,0,0,0,4.49-1.27s-2.54,4.11-2.22,5.35,5.17,15.09,5.17,15.09,1-16.33.55-21.08S81.15,234,79.24,229.08C77.89,225.61,76.42,222.11,76.42,222.11Z" style="opacity:0.15"></path><path d="M107.65,265.14c0-4.59,1.91-16.16,2.11-18.47s-3.13-4.24-3.13-4.24,2,.41,2.6-.12-3.57-6.07-7.11-9.69-10.22-9-10.22-9l.15,3a42.09,42.09,0,0,1,5.2,6.24C100.41,237.57,106.14,242.59,107.65,265.14Z" style="fill:#4267B2"></path><path d="M107.65,265.14c0-4.59,1.91-16.16,2.11-18.47s-3.13-4.24-3.13-4.24,2,.41,2.6-.12-3.57-6.07-7.11-9.69-10.22-9-10.22-9l.15,3a42.09,42.09,0,0,1,5.2,6.24C100.41,237.57,106.14,242.59,107.65,265.14Z" style="opacity:0.15"></path><g id="freepik--arm--inject-128"><path d="M85.73,249.05c2.32-2.21,3.51-3.1,4.66-3.58s5.1-2.71,6.65-3.3c1-.38,1.59,1.18.43,2.45a37,37,0,0,1-4.39,3.16,20.37,20.37,0,0,0-3,3.73Z" style="fill:#f0997a"></path><path d="M53,241.09c2-6.41,5.4-8.82,11.47-9.76,4.21,8.56,1.83,22.53,1.83,22.53l-3.09,10.2s12.12-4.61,13.71-5.92a82.79,82.79,0,0,0,6.87-7.33c1.86-2.28,2.94-2.14,4-2.1,3.57.1,4.38.3,5.18.68a1.62,1.62,0,0,1,.85,1.29c.94,0,2.34-.19,2.7,1.32a4.15,4.15,0,0,1,.2,1.22,1,1,0,0,1,.65.27c.89.81-.07,4.08-.82,4.94a3.07,3.07,0,0,1-2.5.76c-1,0-.64-1-.64-1l-1.31.24c-2.61,2.37-2.27,6.41-5.94,7.75a25.8,25.8,0,0,0-4.51,1.45c-7.8,3.71-17.8,14.24-26.78,15.27-7.11.82-8.17-2.46-8.4-6.82C46.24,271.52,51.23,246.8,53,241.09Z" style="fill:#ffbda7"></path><path d="M64.55,231.14c-3.42.75-6.55,1.13-9,4.09s-3,5.57-4.56,12.51-3,14-4.08,21-1.08,11.19,1.21,13.3,6.42,1.57,8.53,1.09a32.68,32.68,0,0,0,5.93-2.58S60.41,277.82,61,272s3.54-8.41,3.54-8.41l-1.19.4s2.32-6.78,3.93-11.46S67.72,235,64.55,231.14Z" style="fill:#4267B2"></path><path d="M64.55,231.14c-3.42.75-6.55,1.13-9,4.09s-3,5.57-4.56,12.51-3,14-4.08,21-1.08,11.19,1.21,13.3,6.42,1.57,8.53,1.09a32.68,32.68,0,0,0,5.93-2.58S60.41,277.82,61,272s3.54-8.41,3.54-8.41l-1.19.4s2.32-6.78,3.93-11.46S67.72,235,64.55,231.14Z" style="opacity:0.15"></path><path d="M64,262l-.67,1.95c-4.16,1.21-8.38,2.53-9.44,4.14C55,265.42,58.16,263.45,64,262Z" style="opacity:0.35000000000000003"></path><path d="M93.83,250.68l-4.28-.34,4.12-.23A1.75,1.75,0,0,1,93.83,250.68Z" style="fill:#f0997a"></path><path d="M96.73,253.22l-4.87-.05,4.81-.51A2.47,2.47,0,0,1,96.73,253.22Z" style="fill:#f0997a"></path><path d="M96.36,255.41a1.62,1.62,0,0,1-.58.64,3.6,3.6,0,0,1-.79.38l.06-.06c-.1.27-.21.53-.32.79l-.11-.11a1,1,0,0,1,.79.09,1.37,1.37,0,0,1,.49.58,1.51,1.51,0,0,0-.55-.46,1,1,0,0,0-.67,0l-.18.06.07-.18c.1-.27.2-.53.31-.79l0,0,0,0a5.63,5.63,0,0,0,.77-.31A2,2,0,0,0,96.36,255.41Z" style="fill:#f0997a"></path><path d="M95.16,256.18a14.32,14.32,0,0,1-1.73.33,1.87,1.87,0,0,1-.48,1c-.27.34-.84.89-.84.89l1.31-.24s.25-.63,1.42-1Z" style="fill:#f0997a"></path></g></g></g></g></g><g id="freepik--Podium--inject-128"><g id="freepik--podium--inject-128"><polygon points="216.64 387.94 233.04 397.41 233.04 297.98 171.53 262.46 171.53 361.9 216.64 387.94" style="fill:#4267B2"></polygon><polygon points="216.64 387.94 233.04 397.41 233.04 297.98 171.53 262.46 171.53 361.9 216.64 387.94" style="opacity:0.25"></polygon><polygon points="233.04 297.98 347.08 232.22 347.08 331.66 233.04 397.41 233.04 297.98" style="fill:#4267B2"></polygon><polygon points="285.57 196.71 171.53 262.46 233.04 297.98 347.08 232.22 285.57 196.71" style="fill:#4267B2"></polygon><polygon points="285.57 196.71 171.53 262.46 233.04 297.98 347.08 232.22 285.57 196.71" style="opacity:0.1"></polygon><polygon points="256.78 300.95 256.78 371.98 257.95 371.3 257.95 300.27 256.78 300.95" style="opacity:0.2"></polygon><polygon points="259.71 299.25 259.71 370.28 260.88 369.61 260.88 298.58 259.71 299.25" style="opacity:0.2"></polygon><polygon points="262.63 297.56 262.63 368.59 263.81 367.91 263.81 296.88 262.63 297.56" style="opacity:0.2"></polygon><polygon points="321.7 263.48 321.7 334.5 322.87 333.83 322.87 262.8 321.7 263.48" style="opacity:0.2"></polygon><polygon points="324.63 261.78 324.63 332.81 325.8 332.13 325.8 261.11 324.63 261.78" style="opacity:0.2"></polygon><polygon points="327.56 260.09 327.56 331.12 328.73 330.44 328.73 259.41 327.56 260.09" style="opacity:0.2"></polygon><polygon points="268.8 298.58 316.43 271.25 316.43 332.81 269.08 360.14 268.8 298.58" style="opacity:0.1"></polygon><polygon points="314.51 331.56 316.43 332.81 269.08 360.14 269.07 357.79 314.51 331.56" style="opacity:0.25"></polygon><polygon points="314.51 272.35 268.8 298.58 269.07 357.79 314.51 331.56 314.51 272.35" style="opacity:0.1"></polygon><polygon points="305.32 288.1 277.16 304.26 277.32 340.74 278.84 341.75 306.83 325.59 306.83 289.11 305.32 288.1" style="fill:#4267B2"></polygon><polygon points="306.83 289.11 278.67 305.27 278.84 341.75 306.83 325.59 306.83 289.11" style="fill:#4267B2"></polygon><polygon points="305.32 288.1 306.83 289.11 278.67 305.27 277.16 304.26 305.32 288.1" style="opacity:0.25"></polygon><polygon points="277.16 304.26 278.67 305.27 278.84 341.75 277.32 340.74 277.16 304.26" style="opacity:0.1"></polygon><polygon points="216.64 316.92 219.26 389.46 216.64 387.94 216.64 316.92" style="opacity:0.2"></polygon><path d="M301.21,307.59h0l-2.62-4.1s0-.06,0-.09v-.21c0-.2-.12-.29-.27-.21l-5.36,3.1v-1.71c0-.36-.16-.55-.37-.43a1.09,1.09,0,0,0-.37.86v1.7l-5.36,3.1a.62.62,0,0,0-.27.51v.06L284,317.29v0s0,.05,0,.07a3.27,3.27,0,0,0,1.23,3,1.63,1.63,0,0,0,.81.21,2.16,2.16,0,0,0,1.1-.32c1.57-.9,2.85-3.59,2.85-6a.37.37,0,0,0,0-.15h0l-2.49-3.89,4.81-2.78v14.42l-1.74,1a2,2,0,0,0-.82,1.56V325l-.4.23a3.84,3.84,0,0,0-1.6,3.06v.16l9.87-5.7v-.16c0-1.18-.72-1.72-1.6-1.21l-.4.23V321c0-.6-.37-.88-.82-.61l-1.75,1V307l4.69-2.7-2.39,6.46v0a.19.19,0,0,0,0,.07,3.27,3.27,0,0,0,1.22,3,1.67,1.67,0,0,0,.82.21,2.13,2.13,0,0,0,1.09-.32c1.57-.91,2.85-3.59,2.85-6A.26.26,0,0,0,301.21,307.59ZM287,310.64l2.26,3.52-4.51,2.6Zm-.2,9.12a1.31,1.31,0,0,1-1.35.11,2.7,2.7,0,0,1-1-2.32l4.85-2.8C289.23,316.83,288.14,319,286.83,319.76Zm13.75-12.12-4.51,2.6,2.26-6.12Zm-2.46,5.6a1.33,1.33,0,0,1-1.35.11,2.72,2.72,0,0,1-.94-2.32l4.85-2.8C300.52,310.31,299.44,312.48,298.12,313.24Z" style="opacity:0.25"></path><polygon points="233.06 301.95 233.06 289.56 352.44 220.77 352.44 233.15 233.06 301.95" style="fill:#4267B2"></polygon><polygon points="233.06 289.56 168.69 252.4 168.69 264.78 233.06 301.95 233.06 289.56" style="fill:#4267B2"></polygon><polygon points="233.06 289.56 168.69 252.4 168.69 264.78 233.06 301.95 233.06 289.56" style="opacity:0.25"></polygon><polygon points="347.08 240.54 347.08 236.25 233.06 301.95 171.53 266.42 171.53 270.71 233.06 306.23 347.08 240.54" style="opacity:0.2"></polygon><polygon points="233.06 289.56 168.69 252.4 288.08 183.6 352.44 220.77 233.06 289.56" style="fill:#4267B2"></polygon><polygon points="233.06 289.56 168.69 252.4 288.08 183.6 352.44 220.77 233.06 289.56" style="fill:#fff;opacity:0.30000000000000004"></polygon><polygon points="124.19 441.24 216.64 387.94 216.64 316.92 124.19 370.21 124.19 441.24" style="fill:#4267B2"></polygon><polygon points="124.19 441.24 216.64 387.94 216.64 316.92 124.19 370.21 124.19 441.24" style="opacity:0.1"></polygon><polygon points="124.19 441.24 83.18 417.56 79.08 344.17 124.19 370.21 124.19 441.24" style="fill:#4267B2"></polygon><polygon points="124.19 441.24 83.18 417.56 79.08 344.17 124.19 370.21 124.19 441.24" style="opacity:0.25"></polygon><polygon points="124.19 370.21 124.19 360.74 220.74 305.08 220.74 314.55 124.19 370.21" style="fill:#4267B2"></polygon><polygon points="124.19 370.21 124.19 360.74 220.74 305.08 220.74 314.55 124.19 370.21" style="opacity:0.1"></polygon><polygon points="124.19 360.74 74.98 332.33 74.98 341.8 124.19 370.21 124.19 360.74" style="fill:#4267B2"></polygon><polygon points="124.19 360.74 74.98 332.33 74.98 341.8 124.19 370.21 124.19 360.74" style="opacity:0.25"></polygon><polygon points="216.64 321.96 216.64 316.92 124.19 370.21 79.08 344.17 79.42 349.4 124.19 375.25 216.64 321.96" style="opacity:0.2"></polygon><polygon points="124.19 360.74 74.98 332.33 171.53 276.67 220.74 305.08 124.19 360.74" style="fill:#4267B2"></polygon><polygon points="124.19 360.74 74.98 332.33 171.53 276.67 220.74 305.08 124.19 360.74" style="fill:#fff;opacity:0.2"></polygon><polygon points="132.39 379.68 208.44 335.86 208.44 383.21 132.39 427.03 132.39 379.68" style="opacity:0.15"></polygon><path d="M204.4,342.85v38l-68,39.16V382l68-39.16m1-1.75-70,40.33v40.35l70-40.32V341.1Z" style="fill:#4267B2"></path><g id="freepik--Base--inject-128"><path d="M322.41,216.49a16.5,16.5,0,0,0-15,0c-2.07,1.19-3.09,2.75-3.09,4.32v1.61c0,1.57,1,3.13,3.09,4.32a16.5,16.5,0,0,0,15,0c2.07-1.19,3.1-2.75,3.09-4.32v-1.61C325.51,219.24,324.48,217.68,322.41,216.49Z" style="fill:#263238"></path><path d="M307.45,216.49c-4.13,2.38-4.13,6.25,0,8.64a16.56,16.56,0,0,0,15,0c4.14-2.39,4.14-6.26,0-8.64A16.5,16.5,0,0,0,307.45,216.49Z" style="fill:#455a64"></path><path d="M321.12,214.48a13.68,13.68,0,0,0-12.37,0c-1.71,1-2.56,2.28-2.56,3.57v2.38c0,1.29.85,2.58,2.56,3.57a13.68,13.68,0,0,0,12.37,0c1.7-1,2.55-2.28,2.55-3.57v-2.38C323.67,216.76,322.82,215.46,321.12,214.48Z" style="fill:#37474f"></path><path d="M308.75,214.48c-3.42,2-3.42,5.17,0,7.14a13.68,13.68,0,0,0,12.37,0c3.41-2,3.41-5.17,0-7.14A13.68,13.68,0,0,0,308.75,214.48Z" style="fill:#455a64"></path></g><g id="freepik--Sheets--inject-128"><g style="opacity:0.2"><path d="M210.32,243.79,243,262.63a2.05,2.05,0,0,0,1.84,0l24-13.87a.56.56,0,0,0,0-1.06l-32.64-18.84a2,2,0,0,0-1.83,0l-24,13.86A.57.57,0,0,0,210.32,243.79Z"></path></g><path d="M210.32,242.09,243,260.93a2.05,2.05,0,0,0,1.84,0l24-13.87a.56.56,0,0,0,0-1.06l-32.64-18.84a2,2,0,0,0-1.83,0l-24,13.86A.57.57,0,0,0,210.32,242.09Z" style="fill:#ebebeb"></path><path d="M234.34,227.16l-22.81,13.17L243,258.47a2.05,2.05,0,0,0,1.84,0L267.6,245.3l-31.43-18.14A2,2,0,0,0,234.34,227.16Z" style="fill:#e0e0e0"></path><path d="M210.32,238.77,243,257.61a2.05,2.05,0,0,0,1.84,0l24-13.87c.51-.29.51-.76,0-1.06l-32.64-18.84a2,2,0,0,0-1.83,0l-24,13.87C209.81,238,209.81,238.47,210.32,238.77Z" style="fill:#fafafa"></path></g></g></g><g id="freepik--speech-bubble--inject-128"><g id="freepik--speech-bubble--inject-128"><path d="M377.29,97.71c-4.32-6.29-15.87-11.5-30.14-11.63-13-.13-28.79,3.69-32.74,16.17-3.37,10.64,7,20.52,17.77,22.63a74.63,74.63,0,0,0,13,1.37c2,3.73,6.68,6,10.21,6.26A10.32,10.32,0,0,1,353,126a67.8,67.8,0,0,0,10-1.68C381.71,119.59,382.12,104.74,377.29,97.71Z" style="fill:#4267B2"></path><path d="M377.29,97.71c-4.32-6.29-15.87-11.5-30.14-11.63-13-.13-28.79,3.69-32.74,16.17-3.37,10.64,7,20.52,17.77,22.63a74.63,74.63,0,0,0,13,1.37c2,3.73,6.68,6,10.21,6.26A10.32,10.32,0,0,1,353,126a67.8,67.8,0,0,0,10-1.68C381.71,119.59,382.12,104.74,377.29,97.71Z" style="fill:#fff;opacity:0.4"></path><path d="M328.67,102.17a3.88,3.88,0,1,0,3.88,3.88A3.88,3.88,0,0,0,328.67,102.17Zm18.16,0a3.88,3.88,0,1,0,3.87,3.88A3.88,3.88,0,0,0,346.83,102.17Zm18.15,0a3.88,3.88,0,1,0,3.88,3.88A3.88,3.88,0,0,0,365,102.17Z" style="fill:#fff"></path></g></g></svg>
